<svg xmlns="http://www.w3.org/2000/svg" xmlns:xlink="http://www.w3.org/1999/xlink" viewBox="0 0 2475 1650"><defs><style>.cls-1,.cls-6{fill:#fff;}.cls-2{fill:url(#linear-gradient);}.cls-3{fill:#bdd0fb;}.cls-4{fill:#7d97f4;}.cls-5{fill:#91b3fa;}.cls-6{opacity:0.47;}.cls-7{fill:url(#linear-gradient-2);}.cls-8{fill:url(#linear-gradient-3);}.cls-9{fill:url(#linear-gradient-4);}.cls-10{fill:url(#linear-gradient-5);}.cls-11{fill:url(#linear-gradient-6);}.cls-12{opacity:0.89;}.cls-13{fill:url(#linear-gradient-7);}.cls-14,.cls-23,.cls-24,.cls-25,.cls-26,.cls-27,.cls-28,.cls-29,.cls-30,.cls-63{opacity:0.9;}.cls-15{fill:url(#linear-gradient-8);}.cls-16{fill:url(#linear-gradient-9);}.cls-17{fill:url(#linear-gradient-10);}.cls-18{fill:url(#linear-gradient-11);}.cls-19{fill:url(#linear-gradient-12);}.cls-20{fill:url(#linear-gradient-13);}.cls-21{fill:url(#linear-gradient-14);}.cls-22{fill:url(#linear-gradient-15);}.cls-23{fill:url(#linear-gradient-16);}.cls-24{fill:url(#linear-gradient-17);}.cls-25{fill:url(#linear-gradient-18);}.cls-26{fill:url(#linear-gradient-19);}.cls-27{fill:url(#linear-gradient-20);}.cls-28{fill:url(#linear-gradient-21);}.cls-29{fill:url(#linear-gradient-22);}.cls-30{fill:url(#linear-gradient-23);}.cls-31{fill:url(#linear-gradient-24);}.cls-32{fill:url(#linear-gradient-25);}.cls-33{fill:url(#linear-gradient-26);}.cls-34{fill:url(#linear-gradient-27);}.cls-35{fill:url(#linear-gradient-28);}.cls-36{fill:url(#linear-gradient-29);}.cls-37{opacity:0.7;}.cls-38{fill:url(#linear-gradient-30);}.cls-39{fill:url(#linear-gradient-31);}.cls-40{fill:url(#linear-gradient-32);}.cls-41{fill:url(#linear-gradient-33);}.cls-42{fill:url(#linear-gradient-34);}.cls-43{fill:url(#linear-gradient-35);}.cls-44{fill:url(#linear-gradient-36);}.cls-45{fill:url(#linear-gradient-37);}.cls-46{fill:url(#linear-gradient-38);}.cls-47{fill:url(#linear-gradient-39);}.cls-48{fill:url(#linear-gradient-40);}.cls-49{fill:url(#linear-gradient-41);}.cls-50{fill:url(#linear-gradient-42);}.cls-51{fill:url(#linear-gradient-43);}.cls-52{fill:url(#linear-gradient-44);}.cls-53{fill:url(#linear-gradient-45);}.cls-54{fill:url(#linear-gradient-46);}.cls-55{fill:url(#linear-gradient-47);}.cls-56{fill:url(#linear-gradient-48);}.cls-57{fill:url(#linear-gradient-49);}.cls-58{fill:url(#linear-gradient-50);}.cls-59{fill:url(#linear-gradient-51);}.cls-60{fill:url(#linear-gradient-52);}.cls-61{fill:url(#linear-gradient-53);}.cls-62{fill:url(#linear-gradient-54);}.cls-63{fill:url(#linear-gradient-55);}.cls-64{fill:url(#linear-gradient-56);}.cls-65{fill:url(#linear-gradient-57);}.cls-66{fill:url(#linear-gradient-58);}.cls-67{fill:url(#linear-gradient-59);}.cls-68{fill:url(#linear-gradient-60);}.cls-69{fill:url(#linear-gradient-61);}.cls-70{fill:url(#linear-gradient-62);}.cls-71{fill:url(#linear-gradient-63);}.cls-72{fill:url(#linear-gradient-64);}.cls-73{fill:url(#linear-gradient-65);}.cls-74{fill:url(#linear-gradient-66);}.cls-75{fill:url(#linear-gradient-67);}.cls-76{fill:url(#linear-gradient-68);}.cls-77{fill:url(#linear-gradient-69);}.cls-78{fill:url(#linear-gradient-70);}.cls-79{fill:url(#linear-gradient-71);}.cls-80{fill:url(#linear-gradient-72);}.cls-81{fill:url(#linear-gradient-73);}.cls-82{fill:url(#linear-gradient-74);}.cls-83{fill:url(#linear-gradient-75);}.cls-84{fill:url(#linear-gradient-76);}.cls-85{fill:url(#linear-gradient-77);}.cls-86{fill:url(#linear-gradient-78);}.cls-87{fill:url(#linear-gradient-79);}.cls-88{fill:url(#linear-gradient-80);}.cls-89{fill:url(#linear-gradient-81);}.cls-90{fill:url(#linear-gradient-82);}.cls-91{fill:url(#linear-gradient-83);}.cls-92{fill:url(#linear-gradient-84);}.cls-93{fill:url(#linear-gradient-85);}.cls-94{fill:url(#linear-gradient-86);}.cls-95{fill:url(#linear-gradient-87);}.cls-96{fill:url(#linear-gradient-88);}.cls-97{fill:url(#linear-gradient-89);}.cls-98{fill:url(#linear-gradient-90);}.cls-99{fill:url(#linear-gradient-91);}.cls-100{fill:url(#linear-gradient-92);}.cls-101{fill:url(#linear-gradient-93);}.cls-102{fill:url(#linear-gradient-94);}.cls-103{fill:url(#linear-gradient-95);}.cls-104{fill:url(#linear-gradient-96);}.cls-105{fill:url(#linear-gradient-97);}.cls-106{fill:url(#linear-gradient-98);}.cls-107{fill:url(#linear-gradient-99);}.cls-108{fill:url(#linear-gradient-100);}.cls-109{fill:url(#linear-gradient-101);}.cls-110{fill:url(#linear-gradient-102);}.cls-111{fill:url(#linear-gradient-103);}.cls-112{fill:url(#linear-gradient-104);}.cls-113{fill:url(#linear-gradient-105);}.cls-114{fill:url(#linear-gradient-106);}.cls-115{fill:url(#linear-gradient-107);}.cls-116{fill:url(#linear-gradient-108);}.cls-117{fill:url(#linear-gradient-109);}.cls-118{fill:url(#linear-gradient-110);}.cls-119{fill:url(#linear-gradient-111);}.cls-120{fill:url(#linear-gradient-112);}.cls-121{fill:url(#linear-gradient-113);}.cls-122{fill:url(#linear-gradient-114);}.cls-123{fill:url(#linear-gradient-115);}.cls-124{fill:url(#linear-gradient-116);}.cls-125{fill:url(#linear-gradient-117);}.cls-126{fill:url(#linear-gradient-118);}.cls-127{fill:url(#linear-gradient-119);}.cls-128{fill:url(#linear-gradient-120);}.cls-129{fill:url(#linear-gradient-121);}.cls-130{fill:url(#linear-gradient-122);}.cls-131{fill:url(#linear-gradient-123);}.cls-132{fill:url(#linear-gradient-124);}.cls-133{fill:url(#linear-gradient-125);}.cls-134{fill:url(#linear-gradient-126);}.cls-135{fill:url(#linear-gradient-127);}.cls-136{fill:url(#linear-gradient-128);}.cls-137{fill:url(#linear-gradient-129);}.cls-138{fill:url(#linear-gradient-130);}.cls-139{fill:url(#linear-gradient-131);}.cls-140{fill:url(#linear-gradient-132);}.cls-141{fill:url(#linear-gradient-133);}.cls-142{fill:url(#linear-gradient-134);}.cls-143{fill:url(#linear-gradient-135);}.cls-144{fill:url(#linear-gradient-136);}.cls-145{fill:url(#linear-gradient-137);}.cls-146{fill:url(#linear-gradient-138);}.cls-147{fill:url(#linear-gradient-139);}.cls-148{fill:url(#linear-gradient-140);}.cls-149{fill:url(#linear-gradient-141);}.cls-150{fill:url(#linear-gradient-142);}.cls-151{fill:url(#linear-gradient-143);}.cls-152{fill:url(#linear-gradient-144);}.cls-153{fill:url(#linear-gradient-145);}.cls-154{fill:url(#linear-gradient-146);}.cls-155{fill:url(#linear-gradient-147);}.cls-156{fill:url(#linear-gradient-148);}.cls-157{fill:url(#linear-gradient-149);}.cls-158{fill:url(#linear-gradient-150);}.cls-159{fill:url(#linear-gradient-151);}.cls-160{fill:url(#linear-gradient-152);}.cls-161{fill:url(#linear-gradient-153);}.cls-162{fill:url(#linear-gradient-154);}.cls-163{fill:url(#linear-gradient-155);}.cls-164{fill:url(#linear-gradient-156);}.cls-165{fill:url(#linear-gradient-157);}.cls-166{fill:url(#linear-gradient-158);}.cls-167{fill:url(#linear-gradient-159);}.cls-168{fill:url(#linear-gradient-160);}.cls-169{fill:url(#linear-gradient-161);}.cls-170{fill:url(#linear-gradient-162);}.cls-171{fill:url(#linear-gradient-163);}.cls-172{fill:url(#linear-gradient-164);}.cls-173{fill:url(#linear-gradient-165);}.cls-174{fill:url(#linear-gradient-166);}.cls-175{fill:url(#linear-gradient-167);}.cls-176{fill:url(#linear-gradient-168);}.cls-177{fill:url(#linear-gradient-169);}.cls-178{fill:url(#linear-gradient-170);}.cls-179{fill:url(#linear-gradient-171);}.cls-180{fill:url(#linear-gradient-172);}.cls-181{fill:url(#linear-gradient-173);}.cls-182{fill:url(#linear-gradient-174);}.cls-183{fill:url(#linear-gradient-175);}.cls-184{fill:url(#linear-gradient-176);}.cls-185{fill:url(#linear-gradient-177);}.cls-186{fill:url(#linear-gradient-178);}.cls-187{fill:url(#linear-gradient-179);}.cls-188{fill:url(#linear-gradient-180);}.cls-189{fill:url(#linear-gradient-181);}.cls-190{fill:url(#linear-gradient-182);}.cls-191{fill:url(#linear-gradient-183);}.cls-192{fill:url(#linear-gradient-184);}.cls-193{fill:url(#linear-gradient-185);}.cls-194{fill:url(#linear-gradient-186);}.cls-195{fill:url(#linear-gradient-187);}</style><linearGradient id="linear-gradient" x1="3775.34" y1="771.02" x2="553.69" y2="730.74" gradientTransform="translate(227.66 -22.1) rotate(3.8)" gradientUnits="userSpaceOnUse"><stop offset="0" stop-color="#dae3fe"/><stop offset="1" stop-color="#e9effd"/></linearGradient><linearGradient id="linear-gradient-2" x1="615.62" y1="584.57" x2="778.76" y2="584.57" gradientTransform="matrix(1, 0, 0, 1, 0, 0)" xlink:href="#linear-gradient"/><linearGradient id="linear-gradient-3" x1="580.56" y1="939.07" x2="761.69" y2="939.07" gradientTransform="matrix(1, 0, 0, 1, 0, 0)" xlink:href="#linear-gradient"/><linearGradient id="linear-gradient-4" x1="2496.3" y1="266.84" x2="2164.3" y2="702.84" gradientUnits="userSpaceOnUse"><stop offset="0" stop-color="#fe7062"/><stop offset="1" stop-color="#ff928e"/></linearGradient><linearGradient id="linear-gradient-5" x1="2367.53" y1="206.09" x2="2183.53" y2="402.09" gradientUnits="userSpaceOnUse"><stop offset="0" stop-color="#09005d"/><stop offset="1" stop-color="#1a0f91"/></linearGradient><linearGradient id="linear-gradient-6" x1="1893.41" y1="459.7" x2="1445.41" y2="1159.7" xlink:href="#linear-gradient-5"/><linearGradient id="linear-gradient-7" x1="1933.83" y1="522.69" x2="1860.33" y2="872.17" gradientUnits="userSpaceOnUse"><stop offset="0" stop-color="#ff928e"/><stop offset="1" stop-color="#feb3b1"/></linearGradient><linearGradient id="linear-gradient-8" x1="1751.9" y1="775.13" x2="1746.06" y2="2107.29" gradientUnits="userSpaceOnUse"><stop offset="0" stop-color="#e1473d"/><stop offset="1" stop-color="#e9605a"/></linearGradient><linearGradient id="linear-gradient-9" x1="1838.11" y1="775.5" x2="1832.27" y2="2107.66" xlink:href="#linear-gradient-8"/><linearGradient id="linear-gradient-10" x1="1219.58" y1="1154.04" x2="2257.68" y2="232.94" xlink:href="#linear-gradient-4"/><linearGradient id="linear-gradient-11" x1="1895.54" y1="-466.43" x2="1695.54" y2="-122.43" xlink:href="#linear-gradient-5"/><linearGradient id="linear-gradient-12" x1="1404.45" y1="135.86" x2="876.45" y2="979.86" xlink:href="#linear-gradient-5"/><linearGradient id="linear-gradient-13" x1="1383.8" y1="983.47" x2="1299.79" y2="1217.49" xlink:href="#linear-gradient-8"/><linearGradient id="linear-gradient-14" x1="1138.78" y1="1364.32" x2="697.74" y2="1979.38" xlink:href="#linear-gradient-8"/><linearGradient id="linear-gradient-15" x1="1131.99" y1="1155.71" x2="1639.99" y2="355.71" xlink:href="#linear-gradient-7"/><linearGradient id="linear-gradient-16" x1="1503.51" y1="622.82" x2="1711.51" y2="-213.18" xlink:href="#linear-gradient-8"/><linearGradient id="linear-gradient-17" x1="1552.1" y1="634.91" x2="1760.1" y2="-201.09" xlink:href="#linear-gradient-8"/><linearGradient id="linear-gradient-18" x1="1598.81" y1="646.53" x2="1806.81" y2="-189.47" xlink:href="#linear-gradient-8"/><linearGradient id="linear-gradient-19" x1="1653.45" y1="660.12" x2="1861.45" y2="-175.88" xlink:href="#linear-gradient-8"/><linearGradient id="linear-gradient-20" x1="1036.66" y1="506.66" x2="1244.66" y2="-329.34" xlink:href="#linear-gradient-8"/><linearGradient id="linear-gradient-21" x1="1085.26" y1="518.75" x2="1293.26" y2="-317.25" xlink:href="#linear-gradient-8"/><linearGradient id="linear-gradient-22" x1="1131.97" y1="530.37" x2="1339.97" y2="-305.63" xlink:href="#linear-gradient-8"/><linearGradient id="linear-gradient-23" x1="1186.61" y1="543.97" x2="1394.61" y2="-292.03" xlink:href="#linear-gradient-8"/><linearGradient id="linear-gradient-24" x1="1132.51" y1="1232.95" x2="1196" y2="1232.95" xlink:href="#linear-gradient-7"/><linearGradient id="linear-gradient-25" x1="1212.7" y1="1232.95" x2="1276.2" y2="1232.95" xlink:href="#linear-gradient-7"/><linearGradient id="linear-gradient-26" x1="1132.51" y1="1398.58" x2="1196" y2="1398.58" xlink:href="#linear-gradient-7"/><linearGradient id="linear-gradient-27" x1="1212.7" y1="1398.58" x2="1276.2" y2="1398.58" xlink:href="#linear-gradient-7"/><linearGradient id="linear-gradient-28" x1="1372.56" y1="308.16" x2="1396.57" y2="539.18" xlink:href="#linear-gradient-7"/><linearGradient id="linear-gradient-29" x1="882.21" y1="359.1" x2="906.21" y2="590.12" xlink:href="#linear-gradient-7"/><linearGradient id="linear-gradient-30" x1="1646.39" y1="1233.75" x2="1676.42" y2="1233.75" gradientTransform="matrix(1, 0, 0, 1, 0, 0)" xlink:href="#linear-gradient"/><linearGradient id="linear-gradient-31" x1="1674.37" y1="1354.53" x2="1727.36" y2="1354.53" gradientTransform="matrix(1, 0, 0, 1, 0, 0)" xlink:href="#linear-gradient"/><linearGradient id="linear-gradient-32" x1="1580.68" y1="1370.38" x2="1641.8" y2="1370.38" gradientTransform="matrix(1, 0, 0, 1, 0, 0)" xlink:href="#linear-gradient"/><linearGradient id="linear-gradient-33" x1="1927.44" y1="1064.05" x2="1769.94" y2="1296.54" xlink:href="#linear-gradient-5"/><linearGradient id="linear-gradient-34" x1="1707.29" y1="1261.91" x2="1623.29" y2="1560.4" xlink:href="#linear-gradient-5"/><linearGradient id="linear-gradient-35" x1="-264.94" y1="495.05" x2="71.06" y2="215.05" gradientTransform="translate(1123.14 -14.38) rotate(-1.08)" xlink:href="#linear-gradient-4"/><linearGradient id="linear-gradient-36" x1="-397.74" y1="681.03" x2="-692.79" y2="1058.52" gradientTransform="translate(1123.14 -14.38) rotate(-1.08)" xlink:href="#linear-gradient-7"/><linearGradient id="linear-gradient-37" x1="-6362.11" y1="1215.67" x2="-7010.17" y2="1161.67" gradientTransform="matrix(-0.42, 0.91, 0.91, 0.42, -1048.51, 459.78)" gradientUnits="userSpaceOnUse"><stop offset="0" stop-color="#4042e2"/><stop offset="1" stop-color="#4f52ff"/></linearGradient><linearGradient id="linear-gradient-38" x1="-906.35" y1="-3650.52" x2="-1554.41" y2="-3704.53" gradientTransform="matrix(-0.98, -0.19, -0.19, 0.98, 859.57, 4161.13)" xlink:href="#linear-gradient-37"/><linearGradient id="linear-gradient-39" x1="1113.1" y1="74.54" x2="759.06" y2="464.58" gradientTransform="matrix(1, 0, 0, 1, 0, 0)" xlink:href="#linear-gradient-37"/><linearGradient id="linear-gradient-40" x1="1321.62" y1="263.81" x2="967.58" y2="653.85" gradientTransform="matrix(1, 0, 0, 1, 0, 0)" xlink:href="#linear-gradient-37"/><linearGradient id="linear-gradient-41" x1="-412.11" y1="1646.9" x2="-286.56" y2="1979.59" gradientTransform="matrix(-0.42, 0.91, 0.91, 0.42, -1048.51, 459.78)" xlink:href="#linear-gradient-7"/><linearGradient id="linear-gradient-42" x1="-140.76" y1="1015.27" x2="-51.13" y2="1015.27" gradientTransform="translate(355.51 0.12) rotate(-1.08)" xlink:href="#linear-gradient-7"/><linearGradient id="linear-gradient-43" x1="16.11" y1="1125.85" x2="-1.89" y2="1325.33" gradientTransform="translate(355.51 0.12) rotate(-1.08)" xlink:href="#linear-gradient-5"/><linearGradient id="linear-gradient-44" x1="-21.31" y1="1543.7" x2="29.69" y2="1093.73" gradientTransform="translate(355.51 0.12) rotate(-1.08)" xlink:href="#linear-gradient-37"/><linearGradient id="linear-gradient-45" x1="-31.95" y1="1399.9" x2="-44.79" y2="1511.95" gradientTransform="translate(355.51 0.12) rotate(-1.08)" xlink:href="#linear-gradient-7"/><linearGradient id="linear-gradient-46" x1="93.77" y1="1556.75" x2="144.76" y2="1106.77" gradientTransform="translate(355.51 0.12) rotate(-1.08)" xlink:href="#linear-gradient-37"/><linearGradient id="linear-gradient-47" x1="132.49" y1="1136.35" x2="114.49" y2="1335.84" gradientTransform="translate(355.51 0.12) rotate(-1.08)" xlink:href="#linear-gradient-5"/><linearGradient id="linear-gradient-48" x1="72.63" y1="1411.89" x2="59.79" y2="1523.94" gradientTransform="translate(355.51 0.12) rotate(-1.08)" xlink:href="#linear-gradient-7"/><linearGradient id="linear-gradient-49" x1="584.51" y1="1030.24" x2="176.47" y2="1450.28" xlink:href="#linear-gradient-5"/><linearGradient id="linear-gradient-50" x1="-282.66" y1="473.79" x2="53.34" y2="193.79" gradientTransform="translate(1123.14 -14.38) rotate(-1.08)" xlink:href="#linear-gradient-4"/><linearGradient id="linear-gradient-51" x1="-3.57" y1="683.62" x2="-52.59" y2="895.46" gradientTransform="translate(355.51 0.12) rotate(-1.08)" xlink:href="#linear-gradient-7"/><linearGradient id="linear-gradient-52" x1="623.57" y1="552.4" x2="485.56" y2="615.41" xlink:href="#linear-gradient-7"/><linearGradient id="linear-gradient-53" x1="-1452.22" y1="-1302.03" x2="-1348.34" y2="-1302.03" gradientTransform="matrix(0.67, -0.74, 0.74, 0.67, 2271.67, 508.95)" gradientUnits="userSpaceOnUse"><stop offset="0" stop-color="#2b3582"/><stop offset="1" stop-color="#150e42"/></linearGradient><linearGradient id="linear-gradient-54" x1="-1513.18" y1="-1238.55" x2="-1443.42" y2="-1310.12" gradientTransform="matrix(0.67, -0.74, 0.74, 0.67, 2271.67, 508.95)" xlink:href="#linear-gradient-7"/><linearGradient id="linear-gradient-55" x1="520.36" y1="641.71" x2="348.36" y2="773.71" xlink:href="#linear-gradient-8"/><linearGradient id="linear-gradient-56" x1="420.02" y1="1026.25" x2="-51.03" y2="1608.31" gradientUnits="userSpaceOnUse"><stop offset="0" stop-color="#020039"/><stop offset="1" stop-color="#090056"/></linearGradient><linearGradient id="linear-gradient-57" x1="325.01" y1="564.61" x2="373.01" y2="932.61" xlink:href="#linear-gradient-4"/><linearGradient id="linear-gradient-58" x1="2197.11" y1="898.53" x2="2168.11" y2="937.53" xlink:href="#linear-gradient-7"/><linearGradient id="linear-gradient-59" x1="-614.03" y1="2029.38" x2="-956.05" y2="1354.38" gradientTransform="matrix(-0.75, 0.67, 0.67, 0.75, 392.26, 520.85)" xlink:href="#linear-gradient-37"/><linearGradient id="linear-gradient-60" x1="1878.98" y1="839.61" x2="1974.5" y2="839.61" gradientTransform="matrix(1, 0, 0, 1, 0, 0)" xlink:href="#linear-gradient-37"/><linearGradient id="linear-gradient-61" x1="1795.89" y1="790.7" x2="1969.58" y2="790.7" gradientTransform="translate(2765.2 2638.51) rotate(-138.31)" xlink:href="#linear-gradient-37"/><linearGradient id="linear-gradient-62" x1="1836.14" y1="546.01" x2="1848.14" y2="318.01" xlink:href="#linear-gradient-7"/><linearGradient id="linear-gradient-63" x1="1763.34" y1="774.09" x2="1599.34" y2="1238.09" xlink:href="#linear-gradient-4"/><linearGradient id="linear-gradient-64" x1="1769.28" y1="776.2" x2="1605.28" y2="1240.19" xlink:href="#linear-gradient-4"/><linearGradient id="linear-gradient-65" x1="1798.87" y1="786.65" x2="1634.87" y2="1250.65" xlink:href="#linear-gradient-4"/><linearGradient id="linear-gradient-66" x1="1806.44" y1="789.33" x2="1642.44" y2="1253.33" xlink:href="#linear-gradient-4"/><linearGradient id="linear-gradient-67" x1="1840.33" y1="801.31" x2="1676.33" y2="1265.31" xlink:href="#linear-gradient-4"/><linearGradient id="linear-gradient-68" x1="-255.21" y1="1161.6" x2="-260.21" y2="1278.1" gradientTransform="matrix(-1, 0, 0, 1, 1839.93, 0)" xlink:href="#linear-gradient-5"/><linearGradient id="linear-gradient-69" x1="-261.04" y1="1276.79" x2="-246.54" y2="1085.8" gradientTransform="matrix(-1, 0, 0, 1, 1839.93, 0)" xlink:href="#linear-gradient-37"/><linearGradient id="linear-gradient-70" x1="-266.26" y1="1182.02" x2="-273.14" y2="1242.07" gradientTransform="matrix(-1, 0, 0, 1, 1839.93, 0)" xlink:href="#linear-gradient-7"/><linearGradient id="linear-gradient-71" x1="-198.89" y1="1281.51" x2="-184.39" y2="1090.51" gradientTransform="matrix(-1, 0, 0, 1, 1839.93, 0)" xlink:href="#linear-gradient-37"/><linearGradient id="linear-gradient-72" x1="-192.5" y1="1164.29" x2="-197.5" y2="1280.79" gradientTransform="matrix(-1, 0, 0, 1, 1839.93, 0)" xlink:href="#linear-gradient-5"/><linearGradient id="linear-gradient-73" x1="-210.2" y1="1188.44" x2="-217.09" y2="1248.5" gradientTransform="matrix(-1, 0, 0, 1, 1839.93, 0)" xlink:href="#linear-gradient-7"/><linearGradient id="linear-gradient-74" x1="2176.8" y1="985.8" x2="2025.8" y2="1172.8" xlink:href="#linear-gradient-5"/><linearGradient id="linear-gradient-75" x1="-1030.41" y1="838.57" x2="-1067.7" y2="1203.67" gradientTransform="matrix(-1, 0, 0, 1, 1072.16, 0)" xlink:href="#linear-gradient-4"/><linearGradient id="linear-gradient-76" x1="-251.05" y1="793.49" x2="-277.33" y2="907.03" gradientTransform="matrix(-1, 0, 0, 1, 1839.93, 0)" xlink:href="#linear-gradient-7"/><linearGradient id="linear-gradient-77" x1="2309.45" y1="741.08" x2="2198.45" y2="835.08" xlink:href="#linear-gradient-8"/><linearGradient id="linear-gradient-78" x1="2171.58" y1="796.72" x2="2137.58" y2="919.72" xlink:href="#linear-gradient-5"/><linearGradient id="linear-gradient-79" x1="-939.5" y1="845.56" x2="-977.33" y2="1215.98" gradientTransform="matrix(-1, 0, 0, 1, 1072.16, 0)" xlink:href="#linear-gradient-4"/><linearGradient id="linear-gradient-80" x1="1971.55" y1="799.13" x2="1947.55" y2="839.13" xlink:href="#linear-gradient-7"/><linearGradient id="linear-gradient-81" x1="-4399.24" y1="-278.19" x2="-4382.74" y2="-365.69" gradientTransform="matrix(-0.75, -0.67, -0.67, 0.75, -1644.8, -1476.32)" xlink:href="#linear-gradient-7"/><linearGradient id="linear-gradient-82" x1="-4309.31" y1="-860.94" x2="-4297.14" y2="-791.52" gradientTransform="matrix(-0.75, -0.67, -0.67, 0.75, -1644.8, -1476.32)" xlink:href="#linear-gradient-53"/><linearGradient id="linear-gradient-83" x1="-4414.85" y1="-281.13" x2="-4398.35" y2="-368.63" gradientTransform="matrix(-0.75, -0.67, -0.67, 0.75, -1644.8, -1476.32)" xlink:href="#linear-gradient-7"/><linearGradient id="linear-gradient-84" x1="2104.2" y1="782.04" x2="1996.2" y2="912.04" xlink:href="#linear-gradient-4"/><linearGradient id="linear-gradient-85" x1="545.16" y1="727.89" x2="550.56" y2="727.89" gradientTransform="matrix(1, 0, 0, 1, 0, 0)" xlink:href="#linear-gradient"/><linearGradient id="linear-gradient-86" x1="556.47" y1="710.98" x2="562.35" y2="710.98" gradientTransform="matrix(1, 0, 0, 1, 0, 0)" xlink:href="#linear-gradient"/><linearGradient id="linear-gradient-87" x1="568.7" y1="694.74" x2="575.04" y2="694.74" gradientTransform="matrix(1, 0, 0, 1, 0, 0)" xlink:href="#linear-gradient"/><linearGradient id="linear-gradient-88" x1="581.8" y1="679.19" x2="588.58" y2="679.19" gradientTransform="matrix(1, 0, 0, 1, 0, 0)" xlink:href="#linear-gradient"/><linearGradient id="linear-gradient-89" x1="595.71" y1="664.38" x2="602.93" y2="664.38" gradientTransform="matrix(1, 0, 0, 1, 0, 0)" xlink:href="#linear-gradient"/><linearGradient id="linear-gradient-90" x1="610.39" y1="650.33" x2="618.02" y2="650.33" gradientTransform="matrix(1, 0, 0, 1, 0, 0)" xlink:href="#linear-gradient"/><linearGradient id="linear-gradient-91" x1="625.76" y1="637.04" x2="633.79" y2="637.04" gradientTransform="matrix(1, 0, 0, 1, 0, 0)" xlink:href="#linear-gradient"/><linearGradient id="linear-gradient-92" x1="641.79" y1="624.55" x2="650.19" y2="624.55" gradientTransform="matrix(1, 0, 0, 1, 0, 0)" xlink:href="#linear-gradient"/><linearGradient id="linear-gradient-93" x1="658.4" y1="612.85" x2="667.17" y2="612.85" gradientTransform="matrix(1, 0, 0, 1, 0, 0)" xlink:href="#linear-gradient"/><linearGradient id="linear-gradient-94" x1="675.55" y1="601.94" x2="684.66" y2="601.94" gradientTransform="matrix(1, 0, 0, 1, 0, 0)" xlink:href="#linear-gradient"/><linearGradient id="linear-gradient-95" x1="693.18" y1="591.82" x2="702.63" y2="591.82" gradientTransform="matrix(1, 0, 0, 1, 0, 0)" xlink:href="#linear-gradient"/><linearGradient id="linear-gradient-96" x1="711.24" y1="582.49" x2="721.01" y2="582.49" gradientTransform="matrix(1, 0, 0, 1, 0, 0)" xlink:href="#linear-gradient"/><linearGradient id="linear-gradient-97" x1="729.7" y1="573.94" x2="739.77" y2="573.94" gradientTransform="matrix(1, 0, 0, 1, 0, 0)" xlink:href="#linear-gradient"/><linearGradient id="linear-gradient-98" x1="748.49" y1="566.17" x2="758.85" y2="566.17" gradientTransform="matrix(1, 0, 0, 1, 0, 0)" xlink:href="#linear-gradient"/><linearGradient id="linear-gradient-99" x1="767.61" y1="559.18" x2="778.2" y2="559.18" gradientTransform="matrix(1, 0, 0, 1, 0, 0)" xlink:href="#linear-gradient"/><linearGradient id="linear-gradient-100" x1="787.02" y1="552.93" x2="797.79" y2="552.93" gradientTransform="matrix(1, 0, 0, 1, 0, 0)" xlink:href="#linear-gradient"/><linearGradient id="linear-gradient-101" x1="806.66" y1="547.44" x2="817.6" y2="547.44" gradientTransform="matrix(1, 0, 0, 1, 0, 0)" xlink:href="#linear-gradient"/><linearGradient id="linear-gradient-102" x1="826.48" y1="542.7" x2="837.6" y2="542.7" gradientTransform="matrix(1, 0, 0, 1, 0, 0)" xlink:href="#linear-gradient"/><linearGradient id="linear-gradient-103" x1="846.49" y1="538.69" x2="857.76" y2="538.69" gradientTransform="matrix(1, 0, 0, 1, 0, 0)" xlink:href="#linear-gradient"/><linearGradient id="linear-gradient-104" x1="866.63" y1="535.42" x2="878.04" y2="535.42" gradientTransform="matrix(1, 0, 0, 1, 0, 0)" xlink:href="#linear-gradient"/><linearGradient id="linear-gradient-105" x1="886.88" y1="532.87" x2="898.43" y2="532.87" gradientTransform="matrix(1, 0, 0, 1, 0, 0)" xlink:href="#linear-gradient"/><linearGradient id="linear-gradient-106" x1="907.21" y1="531.06" x2="918.89" y2="531.06" gradientTransform="matrix(1, 0, 0, 1, 0, 0)" xlink:href="#linear-gradient"/><linearGradient id="linear-gradient-107" x1="927.6" y1="529.97" x2="939.4" y2="529.97" gradientTransform="matrix(1, 0, 0, 1, 0, 0)" xlink:href="#linear-gradient"/><linearGradient id="linear-gradient-108" x1="948.01" y1="529.63" x2="959.93" y2="529.63" gradientTransform="matrix(1, 0, 0, 1, 0, 0)" xlink:href="#linear-gradient"/><linearGradient id="linear-gradient-109" x1="968.43" y1="530.01" x2="980.46" y2="530.01" gradientTransform="matrix(1, 0, 0, 1, 0, 0)" xlink:href="#linear-gradient"/><linearGradient id="linear-gradient-110" x1="988.83" y1="531.12" x2="1000.95" y2="531.12" gradientTransform="matrix(1, 0, 0, 1, 0, 0)" xlink:href="#linear-gradient"/><linearGradient id="linear-gradient-111" x1="1009.18" y1="532.98" x2="1021.4" y2="532.98" gradientTransform="matrix(1, 0, 0, 1, 0, 0)" xlink:href="#linear-gradient"/><linearGradient id="linear-gradient-112" x1="1029.45" y1="535.56" x2="1041.75" y2="535.56" gradientTransform="matrix(1, 0, 0, 1, 0, 0)" xlink:href="#linear-gradient"/><linearGradient id="linear-gradient-113" x1="1049.63" y1="538.77" x2="1062.01" y2="538.77" gradientTransform="matrix(1, 0, 0, 1, 0, 0)" xlink:href="#linear-gradient"/><linearGradient id="linear-gradient-114" x1="1069.71" y1="542.59" x2="1082.17" y2="542.59" gradientTransform="matrix(1, 0, 0, 1, 0, 0)" xlink:href="#linear-gradient"/><linearGradient id="linear-gradient-115" x1="1089.67" y1="547" x2="1102.2" y2="547" gradientTransform="matrix(1, 0, 0, 1, 0, 0)" xlink:href="#linear-gradient"/><linearGradient id="linear-gradient-116" x1="1109.52" y1="551.97" x2="1122.05" y2="551.97" gradientTransform="matrix(1, 0, 0, 1, 0, 0)" xlink:href="#linear-gradient"/><linearGradient id="linear-gradient-117" x1="1129.24" y1="557.5" x2="1141.76" y2="557.5" gradientTransform="matrix(1, 0, 0, 1, 0, 0)" xlink:href="#linear-gradient"/><linearGradient id="linear-gradient-118" x1="1148.8" y1="563.55" x2="1161.32" y2="563.55" gradientTransform="matrix(1, 0, 0, 1, 0, 0)" xlink:href="#linear-gradient"/><linearGradient id="linear-gradient-119" x1="1168.21" y1="570.1" x2="1180.71" y2="570.1" gradientTransform="matrix(1, 0, 0, 1, 0, 0)" xlink:href="#linear-gradient"/><linearGradient id="linear-gradient-120" x1="1187.45" y1="577.13" x2="1199.93" y2="577.13" gradientTransform="matrix(1, 0, 0, 1, 0, 0)" xlink:href="#linear-gradient"/><linearGradient id="linear-gradient-121" x1="1206.51" y1="584.63" x2="1218.98" y2="584.63" gradientTransform="matrix(1, 0, 0, 1, 0, 0)" xlink:href="#linear-gradient"/><linearGradient id="linear-gradient-122" x1="1225.4" y1="592.56" x2="1237.85" y2="592.56" gradientTransform="matrix(1, 0, 0, 1, 0, 0)" xlink:href="#linear-gradient"/><linearGradient id="linear-gradient-123" x1="1244.1" y1="600.9" x2="1256.54" y2="600.9" gradientTransform="matrix(1, 0, 0, 1, 0, 0)" xlink:href="#linear-gradient"/><linearGradient id="linear-gradient-124" x1="1262.63" y1="609.64" x2="1275.05" y2="609.64" gradientTransform="matrix(1, 0, 0, 1, 0, 0)" xlink:href="#linear-gradient"/><linearGradient id="linear-gradient-125" x1="1280.98" y1="618.75" x2="1293.38" y2="618.75" gradientTransform="matrix(1, 0, 0, 1, 0, 0)" xlink:href="#linear-gradient"/><linearGradient id="linear-gradient-126" x1="1299.14" y1="628.22" x2="1311.52" y2="628.22" gradientTransform="matrix(1, 0, 0, 1, 0, 0)" xlink:href="#linear-gradient"/><linearGradient id="linear-gradient-127" x1="1317.13" y1="638.02" x2="1329.49" y2="638.02" gradientTransform="matrix(1, 0, 0, 1, 0, 0)" xlink:href="#linear-gradient"/><linearGradient id="linear-gradient-128" x1="1334.94" y1="648.13" x2="1347.28" y2="648.13" gradientTransform="matrix(1, 0, 0, 1, 0, 0)" xlink:href="#linear-gradient"/><linearGradient id="linear-gradient-129" x1="1352.58" y1="658.54" x2="1364.91" y2="658.54" gradientTransform="matrix(1, 0, 0, 1, 0, 0)" xlink:href="#linear-gradient"/><linearGradient id="linear-gradient-130" x1="1370.05" y1="669.23" x2="1382.38" y2="669.23" gradientTransform="matrix(1, 0, 0, 1, 0, 0)" xlink:href="#linear-gradient"/><linearGradient id="linear-gradient-131" x1="1387.36" y1="680.19" x2="1399.67" y2="680.19" gradientTransform="matrix(1, 0, 0, 1, 0, 0)" xlink:href="#linear-gradient"/><linearGradient id="linear-gradient-132" x1="1404.51" y1="691.39" x2="1416.81" y2="691.39" gradientTransform="matrix(1, 0, 0, 1, 0, 0)" xlink:href="#linear-gradient"/><linearGradient id="linear-gradient-133" x1="1421.5" y1="702.83" x2="1433.79" y2="702.83" gradientTransform="matrix(1, 0, 0, 1, 0, 0)" xlink:href="#linear-gradient"/><linearGradient id="linear-gradient-134" x1="1438.34" y1="714.48" x2="1450.62" y2="714.48" gradientTransform="matrix(1, 0, 0, 1, 0, 0)" xlink:href="#linear-gradient"/><linearGradient id="linear-gradient-135" x1="1455.04" y1="726.34" x2="1467.31" y2="726.34" gradientTransform="matrix(1, 0, 0, 1, 0, 0)" xlink:href="#linear-gradient"/><linearGradient id="linear-gradient-136" x1="1471.6" y1="738.39" x2="1483.87" y2="738.39" gradientTransform="matrix(1, 0, 0, 1, 0, 0)" xlink:href="#linear-gradient"/><linearGradient id="linear-gradient-137" x1="1488.02" y1="750.63" x2="1500.3" y2="750.63" gradientTransform="matrix(1, 0, 0, 1, 0, 0)" xlink:href="#linear-gradient"/><linearGradient id="linear-gradient-138" x1="1504.32" y1="763.02" x2="1516.59" y2="763.02" gradientTransform="matrix(1, 0, 0, 1, 0, 0)" xlink:href="#linear-gradient"/><linearGradient id="linear-gradient-139" x1="1520.54" y1="775.56" x2="1532.74" y2="775.56" gradientTransform="matrix(1, 0, 0, 1, 0, 0)" xlink:href="#linear-gradient"/><linearGradient id="linear-gradient-140" x1="1536.66" y1="788.24" x2="1548.79" y2="788.24" gradientTransform="matrix(1, 0, 0, 1, 0, 0)" xlink:href="#linear-gradient"/><linearGradient id="linear-gradient-141" x1="1552.69" y1="801.03" x2="1564.76" y2="801.03" gradientTransform="matrix(1, 0, 0, 1, 0, 0)" xlink:href="#linear-gradient"/><linearGradient id="linear-gradient-142" x1="1568.65" y1="813.91" x2="1580.66" y2="813.91" gradientTransform="matrix(1, 0, 0, 1, 0, 0)" xlink:href="#linear-gradient"/><linearGradient id="linear-gradient-143" x1="1584.54" y1="826.89" x2="1596.49" y2="826.89" gradientTransform="matrix(1, 0, 0, 1, 0, 0)" xlink:href="#linear-gradient"/><linearGradient id="linear-gradient-144" x1="1600.36" y1="839.93" x2="1612.26" y2="839.93" gradientTransform="matrix(1, 0, 0, 1, 0, 0)" xlink:href="#linear-gradient"/><linearGradient id="linear-gradient-145" x1="1616.14" y1="853.03" x2="1627.98" y2="853.03" gradientTransform="matrix(1, 0, 0, 1, 0, 0)" xlink:href="#linear-gradient"/><linearGradient id="linear-gradient-146" x1="1631.88" y1="866.17" x2="1643.67" y2="866.17" gradientTransform="matrix(1, 0, 0, 1, 0, 0)" xlink:href="#linear-gradient"/><linearGradient id="linear-gradient-147" x1="1647.59" y1="879.34" x2="1659.34" y2="879.34" gradientTransform="matrix(1, 0, 0, 1, 0, 0)" xlink:href="#linear-gradient"/><linearGradient id="linear-gradient-148" x1="1663.29" y1="892.53" x2="1674.99" y2="892.53" gradientTransform="matrix(1, 0, 0, 1, 0, 0)" xlink:href="#linear-gradient"/><linearGradient id="linear-gradient-149" x1="1678.98" y1="905.72" x2="1690.64" y2="905.72" gradientTransform="matrix(1, 0, 0, 1, 0, 0)" xlink:href="#linear-gradient"/><linearGradient id="linear-gradient-150" x1="1694.68" y1="918.9" x2="1706.31" y2="918.9" gradientTransform="matrix(1, 0, 0, 1, 0, 0)" xlink:href="#linear-gradient"/><linearGradient id="linear-gradient-151" x1="1710.39" y1="932.06" x2="1721.99" y2="932.06" gradientTransform="matrix(1, 0, 0, 1, 0, 0)" xlink:href="#linear-gradient"/><linearGradient id="linear-gradient-152" x1="1726.13" y1="945.19" x2="1737.7" y2="945.19" gradientTransform="matrix(1, 0, 0, 1, 0, 0)" xlink:href="#linear-gradient"/><linearGradient id="linear-gradient-153" x1="1741.92" y1="958.26" x2="1753.46" y2="958.26" gradientTransform="matrix(1, 0, 0, 1, 0, 0)" xlink:href="#linear-gradient"/><linearGradient id="linear-gradient-154" x1="1757.75" y1="971.27" x2="1769.27" y2="971.27" gradientTransform="matrix(1, 0, 0, 1, 0, 0)" xlink:href="#linear-gradient"/><linearGradient id="linear-gradient-155" x1="1773.65" y1="984.21" x2="1785.15" y2="984.21" gradientTransform="matrix(1, 0, 0, 1, 0, 0)" xlink:href="#linear-gradient"/><linearGradient id="linear-gradient-156" x1="1789.62" y1="997.06" x2="1801.1" y2="997.06" gradientTransform="matrix(1, 0, 0, 1, 0, 0)" xlink:href="#linear-gradient"/><linearGradient id="linear-gradient-157" x1="1805.67" y1="1009.79" x2="1817.14" y2="1009.79" gradientTransform="matrix(1, 0, 0, 1, 0, 0)" xlink:href="#linear-gradient"/><linearGradient id="linear-gradient-158" x1="1821.81" y1="1022.41" x2="1833.26" y2="1022.41" gradientTransform="matrix(1, 0, 0, 1, 0, 0)" xlink:href="#linear-gradient"/><linearGradient id="linear-gradient-159" x1="1838.04" y1="1034.89" x2="1849.48" y2="1034.89" gradientTransform="matrix(1, 0, 0, 1, 0, 0)" xlink:href="#linear-gradient"/><linearGradient id="linear-gradient-160" x1="1854.42" y1="1047.21" x2="1865.78" y2="1047.21" gradientTransform="matrix(1, 0, 0, 1, 0, 0)" xlink:href="#linear-gradient"/><linearGradient id="linear-gradient-161" x1="1870.93" y1="1059.37" x2="1882.2" y2="1059.37" gradientTransform="matrix(1, 0, 0, 1, 0, 0)" xlink:href="#linear-gradient"/><linearGradient id="linear-gradient-162" x1="1887.56" y1="1071.36" x2="1898.76" y2="1071.36" gradientTransform="matrix(1, 0, 0, 1, 0, 0)" xlink:href="#linear-gradient"/><linearGradient id="linear-gradient-163" x1="1904.33" y1="1083.15" x2="1915.45" y2="1083.15" gradientTransform="matrix(1, 0, 0, 1, 0, 0)" xlink:href="#linear-gradient"/><linearGradient id="linear-gradient-164" x1="1921.25" y1="1094.74" x2="1932.3" y2="1094.74" gradientTransform="matrix(1, 0, 0, 1, 0, 0)" xlink:href="#linear-gradient"/><linearGradient id="linear-gradient-165" x1="1938.33" y1="1106.09" x2="1949.31" y2="1106.09" gradientTransform="matrix(1, 0, 0, 1, 0, 0)" xlink:href="#linear-gradient"/><linearGradient id="linear-gradient-166" x1="1955.6" y1="1117.13" x2="1966.53" y2="1117.13" gradientTransform="matrix(1, 0, 0, 1, 0, 0)" xlink:href="#linear-gradient"/><linearGradient id="linear-gradient-167" x1="1973.13" y1="1127.75" x2="1984.02" y2="1127.75" gradientTransform="matrix(1, 0, 0, 1, 0, 0)" xlink:href="#linear-gradient"/><linearGradient id="linear-gradient-168" x1="1990.96" y1="1137.84" x2="2001.83" y2="1137.84" gradientTransform="matrix(1, 0, 0, 1, 0, 0)" xlink:href="#linear-gradient"/><linearGradient id="linear-gradient-169" x1="2009.13" y1="1147.29" x2="2019.99" y2="1147.29" gradientTransform="matrix(1, 0, 0, 1, 0, 0)" xlink:href="#linear-gradient"/><linearGradient id="linear-gradient-170" x1="2027.68" y1="1155.96" x2="2038.54" y2="1155.96" gradientTransform="matrix(1, 0, 0, 1, 0, 0)" xlink:href="#linear-gradient"/><linearGradient id="linear-gradient-171" x1="2046.64" y1="1163.7" x2="2057.5" y2="1163.7" gradientTransform="matrix(1, 0, 0, 1, 0, 0)" xlink:href="#linear-gradient"/><linearGradient id="linear-gradient-172" x1="2066" y1="1170.36" x2="2076.87" y2="1170.36" gradientTransform="matrix(1, 0, 0, 1, 0, 0)" xlink:href="#linear-gradient"/><linearGradient id="linear-gradient-173" x1="2085.76" y1="1175.76" x2="2096.61" y2="1175.76" gradientTransform="matrix(1, 0, 0, 1, 0, 0)" xlink:href="#linear-gradient"/><linearGradient id="linear-gradient-174" x1="2105.86" y1="1179.72" x2="2116.68" y2="1179.72" gradientTransform="matrix(1, 0, 0, 1, 0, 0)" xlink:href="#linear-gradient"/><linearGradient id="linear-gradient-175" x1="2126.26" y1="1182.07" x2="2136.94" y2="1182.07" gradientTransform="matrix(1, 0, 0, 1, 0, 0)" xlink:href="#linear-gradient"/><linearGradient id="linear-gradient-176" x1="2146.82" y1="1182.69" x2="2157.3" y2="1182.69" gradientTransform="matrix(1, 0, 0, 1, 0, 0)" xlink:href="#linear-gradient"/><linearGradient id="linear-gradient-177" x1="2167.36" y1="1181.1" x2="2177.57" y2="1181.1" gradientTransform="matrix(1, 0, 0, 1, 0, 0)" xlink:href="#linear-gradient"/><linearGradient id="linear-gradient-178" x1="2187.64" y1="1177.32" x2="2197.53" y2="1177.32" gradientTransform="matrix(1, 0, 0, 1, 0, 0)" xlink:href="#linear-gradient"/><linearGradient id="linear-gradient-179" x1="2207.45" y1="1171.47" x2="2216.94" y2="1171.47" gradientTransform="matrix(1, 0, 0, 1, 0, 0)" xlink:href="#linear-gradient"/><linearGradient id="linear-gradient-180" x1="2226.58" y1="1163.59" x2="2235.6" y2="1163.59" gradientTransform="matrix(1, 0, 0, 1, 0, 0)" xlink:href="#linear-gradient"/><linearGradient id="linear-gradient-181" x1="2244.78" y1="1153.71" x2="2253.26" y2="1153.71" gradientTransform="matrix(1, 0, 0, 1, 0, 0)" xlink:href="#linear-gradient"/><linearGradient id="linear-gradient-182" x1="2261.78" y1="1141.85" x2="2269.62" y2="1141.85" gradientTransform="matrix(1, 0, 0, 1, 0, 0)" xlink:href="#linear-gradient"/><linearGradient id="linear-gradient-183" x1="2277.24" y1="1128.01" x2="2284.32" y2="1128.01" gradientTransform="matrix(1, 0, 0, 1, 0, 0)" xlink:href="#linear-gradient"/><linearGradient id="linear-gradient-184" x1="2290.73" y1="1112.25" x2="2296.92" y2="1112.25" gradientTransform="matrix(1, 0, 0, 1, 0, 0)" xlink:href="#linear-gradient"/><linearGradient id="linear-gradient-185" x1="2301.78" y1="1094.72" x2="2306.93" y2="1094.72" gradientTransform="matrix(1, 0, 0, 1, 0, 0)" xlink:href="#linear-gradient"/><linearGradient id="linear-gradient-186" x1="2309.91" y1="1075.71" x2="2313.89" y2="1075.71" gradientTransform="matrix(1, 0, 0, 1, 0, 0)" xlink:href="#linear-gradient"/><linearGradient id="linear-gradient-187" x1="833.28" y1="1047.44" x2="2053.76" y2="1047.44" gradientTransform="matrix(1, 0, 0, 1, 0, 0)" xlink:href="#linear-gradient"/></defs><title>backAdmin</title><g id="Background"><rect class="cls-1" width="2475" height="1650"/></g><g id="Illustration"><path class="cls-2" d="M409.64,143.35C250.92,203.42,124.33,384.47,142.74,524.5c16.87,128.39,146.39,152.13,166,297.53,22.42,165.91-133.56,228.86-99.79,327,49.71,144.38,397.39,37.11,891.27,233.33,112.35,44.63,165,78.26,279.86,94.76,190.39,27.35,241.59-36.91,501.55-53.69,271.7-17.53,386.69,41.65,436.74-29,44.64-63-36.83-124.12-35.09-310.58,1.42-153,56.86-171.92,62.3-322.23,1.77-48.88,7.51-207.61-91.41-357.83-88.67-134.65-246.34-239.57-414.07-256-244.66-24-284.9,162.48-548.64,202.87C894.6,411.44,702,32.72,409.64,143.35Z"/><path class="cls-3" d="M1968.06,583.35c-13.9-29-23.84-59.28-26.16-92.29-5.85-83.16,42.5-159.75,78-231.36,32.64-65.82,56.91-163.88-53.24-155.16-87.76,7-190.93,94.41-202.7,185.6-13.93,107.94,38.62,244-23.68,342.08-87.15,137.16-150,105.72-150,337.17,0,98.9,54.78,153.45,117.52,183.5a262.6,262.6,0,0,0,296-48.1C2073.55,1037.33,2115,940.35,2101,843,2086.82,744.65,2009.69,670.08,1968.06,583.35Z"/><path class="cls-4" d="M1894.43,1327.49a3.07,3.07,0,0,1-3-2.33c-54.59-217.91-84.31-415.44-88.32-587.11-3.22-137.47,9.95-258.78,39.13-360.57,49.83-173.86,128-229.69,131.29-232a3.07,3.07,0,1,1,3.51,5c-.8.55-80,57.32-129.13,229.45-45.42,159.09-73.71,452,49.48,943.68a3.08,3.08,0,0,1-2.23,3.73A3.2,3.2,0,0,1,1894.43,1327.49Z"/><path class="cls-3" d="M2055.5,339.35a36.78,36.78,0,0,0-13.87-.94c-27.45,3.16-38.72,32.11-46.79,54.75-6.9,19.38-15,42.91-11,63.91,4.41,22.7,28.53,41.22,46,18.17,19.89-26.2,49.73-66.43,49.91-101.16C2079.89,356.83,2070.2,343.34,2055.5,339.35Z"/><path class="cls-3" d="M2258.72,1154.42c11.23-74-15.66-158.9-29.08-237.13-7.09-41.36-10.37-82.4-3.73-124.07,6.6-41.43,26.07-86.24,8.12-127.52-36.16-83.15-122.14-45.31-171.39,17.29-57.15,72.65-72.77,191.36-94.48,282.76-13.08,55.11-32.8,111.63-39.7,167.78-11.43,93,9.6,157.61,54.1,201.23a134.69,134.69,0,0,0,159.9,21.43C2189.62,1329.92,2240.6,1273.75,2258.72,1154.42Z"/><path class="cls-5" d="M2062,1497.86a3.08,3.08,0,0,1-3-2.56c-.18-1.12-18.88-113.93-19.37-269.63-.45-143.74,15-354.52,90.95-542.4a3.07,3.07,0,1,1,5.69,2.3c-75.61,187-90.94,396.89-90.5,540.08.49,155.2,19.1,267.52,19.29,268.63a3.06,3.06,0,0,1-2.52,3.54A2.92,2.92,0,0,1,2062,1497.86Z"/><path class="cls-3" d="M786.63,1490.57C622,1533.07,320.17,1127.12,404.17,939.33,442.82,852.93,552,837.7,554.49,754.87c2.75-89.75-124.15-111.74-141.54-222-16-101.64,66.25-244.47,175.65-250.33,84.94-4.56,173.1,74.15,188.44,157.58C799.39,561.61,654.75,625.45,678.74,735c20.42,93.2,134.16,88.08,207,186.19C1012.58,1092.16,924.7,1454.94,786.63,1490.57Z"/><path class="cls-6" d="M575.6,1357.29A656.87,656.87,0,0,1,524,1297.53c-4.06-5.19-7.9-10.54-11.82-15.84-2-2.66-3.82-5.38-5.73-8.06s-3.82-5.38-5.65-8.12c-7.47-10.88-14.49-22-21.38-33.32a632.62,632.62,0,0,1-36.69-70.29c-5.36-12.11-10.42-24.38-14.79-36.92l-1.67-4.7-1.55-4.73c-1-3.17-2.09-6.31-3.06-9.5l-2.81-9.58c-1-3.18-1.71-6.43-2.58-9.65a342.32,342.32,0,0,1-7.8-39.33,249.93,249.93,0,0,1-2.22-40.34,178.83,178.83,0,0,1,5.62-40.47,139.73,139.73,0,0,1,6.73-19.58,125.89,125.89,0,0,1,9.8-18.33,160.13,160.13,0,0,1,26.67-31c5-4.58,10.09-8.91,15.34-13s10.57-8.07,15.93-11.91c21.37-15.45,43.19-29.4,62-47.54l2.37,2c-7.74,10.84-17.17,20.42-26.93,29.39-4.91,4.45-10,8.74-15,13S498.6,878,493.58,882.17c-10,8.35-20,16.59-29.05,25.52a187,187,0,0,0-12.93,13.84,134,134,0,0,0-11.13,15c-13.65,20.69-19.36,45.83-20.22,71.08s2.78,51,8.86,76c.79,3.13,1.47,6.28,2.36,9.38l2.6,9.33c.9,3.1,1.91,6.18,2.85,9.27l1.45,4.63,1.57,4.59c2,6.15,4.27,12.22,6.5,18.31,1.14,3,2.36,6,3.53,9.06s2.4,6,3.68,9a689.09,689.09,0,0,0,34.31,70,795.23,795.23,0,0,0,89.93,127.94Z"/><path class="cls-7" d="M616.16,306a142.18,142.18,0,0,1,21.72,5.12,162.91,162.91,0,0,1,20.71,8.4,188.46,188.46,0,0,1,37.5,24.28C719,363,738,387.15,749.75,415a151.45,151.45,0,0,1,7.18,21.53c.82,3.7,1.68,7.41,2.14,11.2l.83,5.67.38,5.71a122.59,122.59,0,0,1-.81,22.9c-.29,1.88-.65,3.76-1,5.64s-.61,3.77-1.12,5.61c-.94,3.69-1.78,7.41-3,11-4.65,14.47-11.34,28.06-18.89,40.9s-15.77,25.17-24,37.32-16.5,24.24-24,36.65a261.22,261.22,0,0,0-19.6,38.51,148.1,148.1,0,0,0-10.14,41.38,136.75,136.75,0,0,0,2.92,42.42,123.35,123.35,0,0,0,16.25,39.27c7.64,12,17.5,22.66,28.47,32s23.17,17.49,35.62,25.15c6.22,3.85,12.57,7.52,18.91,11.24l19,11.23-1.55,2.71c-12.94-6.94-26-13.7-38.82-21s-25.5-15.1-37.16-24.46a148,148,0,0,1-30.68-32.86,128.11,128.11,0,0,1-18.1-41.41,142.5,142.5,0,0,1-3.81-45.1,157.37,157.37,0,0,1,10.3-44A253.33,253.33,0,0,1,679,614.13c7.67-12.74,16-25,24.18-37.16s16.38-24.28,23.74-36.75,13.78-25.39,18.17-38.9c1.21-3.35,2-6.8,2.92-10.22.51-1.7.75-3.45,1.1-5.18s.67-3.47,1-5.2a112.7,112.7,0,0,0,1-21.09l-.28-5.28-.72-5.25a104,104,0,0,0-1.87-10.45,153.66,153.66,0,0,0-6.42-20.37,171,171,0,0,0-20.9-37.5A194.86,194.86,0,0,0,707.24,364a214.87,214.87,0,0,0-15.45-15.18A184,184,0,0,0,656.32,324a157.58,157.58,0,0,0-19.81-8.88,137.41,137.41,0,0,0-20.89-6Z"/><path class="cls-8" d="M583.68,448.71q16,123.78,33.51,247.18t38.13,246.29c6.89,41,14.42,81.78,21.94,122.62,3.94,20.38,7.78,40.78,12,61.1,4,20.38,8.31,40.68,12.53,61l6.71,30.4c2.17,10.16,4.48,20.27,6.8,30.39s4.53,20.27,7.05,30.34l7.29,30.28q14.94,60.48,32,120.48h0a1.56,1.56,0,0,1-3,1c-14.38-39.11-27.14-78.8-39-118.75-5.82-20-11.5-40.07-16.82-60.22-5.57-20.1-10.46-40.36-15.52-60.58-19.74-81-36.16-162.79-50.4-244.89-3.5-20.54-7.09-41.07-10.25-61.66-3.32-20.57-6.36-41.18-9.35-61.79L612.93,791l-4.07-31-3.92-31q-2-15.5-3.7-31l-3.44-31.05-3.29-31.06c-2.09-20.72-4-41.47-5.79-62.21-3.44-41.51-6.55-83-8.16-124.68a1.57,1.57,0,0,1,3.12-.27Z"/><rect class="cls-9" x="1630.31" y="879.23" width="323.82" height="624.51"/><path class="cls-10" d="M1997.49,933.2h-382.6v-266l300.68-15.42,97,257.81A16.62,16.62,0,0,1,1997.49,933.2Z"/><path class="cls-11" d="M1915.57,655.64l-285.26,15.42V640.22l266.56-15.42a18.7,18.7,0,0,1,18.7,18.7Z"/><g class="cls-12"><rect class="cls-13" x="1700.66" y="1048.85" width="185.04" height="285.27" rx="1.12"/><g class="cls-14"><rect class="cls-15" x="1714.15" y="1064.27" width="71.84" height="254.43" rx="0.62"/><rect class="cls-16" x="1800.36" y="1064.27" width="71.84" height="254.43" rx="0.62"/></g></g><rect class="cls-17" x="776.37" y="792.49" width="899.76" height="711.24"/><path class="cls-18" d="M1654.85,447.47h-879L678.51,782.11a27.56,27.56,0,0,0,3.58,23l10,15A29.14,29.14,0,0,0,716.37,833h995.14a29,29,0,0,0,26.3-16.44l9.63-20.45a27.45,27.45,0,0,0,1.57-19.3Z"/><path class="cls-19" d="M1656.83,447.47H773.53V432.3a10.65,10.65,0,0,1,10.62-10.5l861.73-12.72a10.65,10.65,0,0,1,10.95,10.5Z"/><path class="cls-20" d="M1068.75,1456.41h272.63a3.17,3.17,0,0,1,3.17,3.17v44.15a0,0,0,0,1,0,0h-279a0,0,0,0,1,0,0v-44.15A3.17,3.17,0,0,1,1068.75,1456.41Z"/><path class="cls-21" d="M1113.42,1085h183.29a3.56,3.56,0,0,1,3.56,3.56v367.89a0,0,0,0,1,0,0H1109.86a0,0,0,0,1,0,0V1088.52A3.56,3.56,0,0,1,1113.42,1085Z"/><path class="cls-22" d="M1286.82,1060H1123.3a13.44,13.44,0,0,1-13.44-13.44v-11.74a13.45,13.45,0,0,1,12.51-13.42L1285.89,1010a13.45,13.45,0,0,1,14.38,13.41v23.1A13.45,13.45,0,0,1,1286.82,1060Z"/><path class="cls-23" d="M1451.47,894.94h-1.81c-47,0-88.19,33.3-88.19,80.32V1060h90Z"/><path class="cls-24" d="M1361.47,1085v249.15c0,8.39,9.85,21.4,18.24,21.4h71.76V1085Z"/><path class="cls-25" d="M1476.05,894.94h-4.57v165h90V975.26C1561.48,928.24,1523.08,894.94,1476.05,894.94Z"/><path class="cls-26" d="M1471.48,1355.51H1546c8.39,0,15.47-13,15.47-21.4V1085h-90Z"/><path class="cls-27" d="M955.73,894.94h-1.81c-47,0-88.2,33.3-88.2,80.32V1060h90Z"/><path class="cls-28" d="M865.72,1085v249.15c0,8.39,9.85,21.4,18.24,21.4h71.77V1085Z"/><path class="cls-29" d="M980.31,894.94h-4.58v165h90V975.26C1065.74,928.24,1027.33,894.94,980.31,894.94Z"/><path class="cls-30" d="M975.73,1355.51h74.53c8.39,0,15.48-13,15.48-21.4V1085h-90Z"/><path class="cls-5" d="M1020.63,793.53H745.56a21.32,21.32,0,0,1-20.46-27.35L803.68,499.5a1,1,0,1,1,2,.59L727.1,766.77a19.25,19.25,0,0,0,18.46,24.68h275.07a1,1,0,1,1,0,2.08Z"/><path class="cls-31" d="M1178.62,1356.55h-28.73a17.39,17.39,0,0,1-17.38-17.38V1126.73a17.39,17.39,0,0,1,17.38-17.38h28.73a17.39,17.39,0,0,1,17.38,17.38v212.44A17.39,17.39,0,0,1,1178.62,1356.55Zm-28.73-245.12a15.31,15.31,0,0,0-15.3,15.3v212.44a15.31,15.31,0,0,0,15.3,15.3h28.73a15.31,15.31,0,0,0,15.3-15.3V1126.73a15.31,15.31,0,0,0-15.3-15.3Z"/><path class="cls-32" d="M1258.82,1356.55h-28.74a17.4,17.4,0,0,1-17.38-17.38V1126.73a17.4,17.4,0,0,1,17.38-17.38h28.74a17.4,17.4,0,0,1,17.38,17.38v212.44A17.4,17.4,0,0,1,1258.82,1356.55Zm-28.74-245.12a15.31,15.31,0,0,0-15.29,15.3v212.44a15.31,15.31,0,0,0,15.29,15.3h28.74a15.31,15.31,0,0,0,15.29-15.3V1126.73a15.31,15.31,0,0,0-15.29-15.3Z"/><path class="cls-33" d="M1178.62,1428.18h-28.73a17.4,17.4,0,0,1-17.38-17.38v-24.44a17.39,17.39,0,0,1,17.38-17.37h28.73a17.39,17.39,0,0,1,17.38,17.37v24.44A17.4,17.4,0,0,1,1178.62,1428.18Zm-28.73-57.11a15.31,15.31,0,0,0-15.3,15.29v24.44a15.31,15.31,0,0,0,15.3,15.29h28.73a15.31,15.31,0,0,0,15.3-15.29v-24.44a15.31,15.31,0,0,0-15.3-15.29Z"/><path class="cls-34" d="M1258.82,1428.18h-28.74a17.4,17.4,0,0,1-17.38-17.38v-24.44a17.4,17.4,0,0,1,17.38-17.37h28.74a17.4,17.4,0,0,1,17.38,17.37v24.44A17.4,17.4,0,0,1,1258.82,1428.18Zm-28.74-57.11a15.31,15.31,0,0,0-15.29,15.29v24.44a15.31,15.31,0,0,0,15.29,15.29h28.74a15.31,15.31,0,0,0,15.29-15.29v-24.44a15.31,15.31,0,0,0-15.29-15.29Z"/><path class="cls-35" d="M1569.27,1371.07H1352.6a22.56,22.56,0,0,1-22.53-22.53V973.41a107.72,107.72,0,0,1,107.59-107.59h46.56A107.71,107.71,0,0,1,1591.8,973.41v375.13A22.56,22.56,0,0,1,1569.27,1371.07ZM1437.66,867.91a105.62,105.62,0,0,0-105.5,105.5v375.13A20.47,20.47,0,0,0,1352.6,1369h216.67a20.47,20.47,0,0,0,20.44-20.45V973.41a105.61,105.61,0,0,0-105.49-105.5Z"/><path class="cls-36" d="M1073.62,1371.07H857a22.55,22.55,0,0,1-22.53-22.53V973.41A107.71,107.71,0,0,1,942,865.82h46.56a107.71,107.71,0,0,1,107.58,107.59v375.13A22.55,22.55,0,0,1,1073.62,1371.07ZM942,867.91a105.62,105.62,0,0,0-105.5,105.5v375.13A20.47,20.47,0,0,0,857,1369h216.66a20.48,20.48,0,0,0,20.45-20.45V973.41a105.62,105.62,0,0,0-105.5-105.5Z"/><path class="cls-5" d="M1684.92,715.5a1,1,0,0,1-1-.74l-61.11-202a32.6,32.6,0,0,0-31.07-23.27c-160-1.26-258-1.21-262,.14a1.08,1.08,0,0,1-1.33-.62,1,1,0,0,1,.56-1.32c4.9-2,166.78-1,262.84-.28a34.66,34.66,0,0,1,33,24.74l61.11,202a1,1,0,0,1-.7,1.3A1,1,0,0,1,1684.92,715.5Z"/><path class="cls-4" d="M1670.42,1439s57.87-260.49-19.94-224.64-7.87,217.68,0,229S1665.87,1461.27,1670.42,1439Z"/><path class="cls-5" d="M1664.6,1446.08s-25.22-180.26,47-166.47-37.14,165-37.84,171.46S1664.6,1446.08,1664.6,1446.08Z"/><path class="cls-5" d="M1655.35,1447.05s-17.16-160.44-72.64-134.45,64.4,135.07,66.32,140.54S1655.35,1447.05,1655.35,1447.05Z"/><g class="cls-37"><path class="cls-38" d="M1675.39,1243.75a1,1,0,0,1-1-.73c-2.31-7.75-6.14-13-11.38-15.48-7.4-3.56-15.15-.5-15.23-.47a1,1,0,0,1-.77-1.9c.35-.14,8.68-3.43,16.89.52,5.78,2.79,10,8.42,12.46,16.75a1,1,0,0,1-1,1.31Z"/><path class="cls-39" d="M1675.39,1422.32a1,1,0,0,1-.55-.16,1,1,0,0,1-.31-1.42c.28-.42,27.72-43,45.83-82.33,5.63-12.22,6.46-22.89,2.46-31.72-6-13.3-21.06-17.91-21.21-18a1,1,0,0,1-.69-1.28,1,1,0,0,1,1.27-.69c.66.2,16.1,4.93,22.5,19.07,4.25,9.4,3.42,20.65-2.47,33.42-18.18,39.46-45.69,82.17-46,82.6A1,1,0,0,1,1675.39,1422.32Z"/><path class="cls-40" d="M1640.77,1421.79a1,1,0,0,1-1-.84c0-.17-3.31-17.86-19.21-66.1-6.12-18.58-14.31-30-23.66-33a17.36,17.36,0,0,0-14.59,2,1,1,0,0,1-1.21-1.65,19.17,19.17,0,0,1,16.39-2.3c10.16,3.25,18.58,14.79,25,34.32,16,48.42,19.25,66.2,19.28,66.38a1,1,0,0,1-.82,1.19Z"/></g><path class="cls-41" d="M1609.21,1438.33l15.71,56.08a20.12,20.12,0,0,0,19.21,14.68l35.51.27a20.11,20.11,0,0,0,20.1-17.6l7.41-58.82Z"/><path class="cls-42" d="M1705.75,1428.9l-97.54,1.72c-4.76.08-8.57,4.26-8.54,9.32a8.85,8.85,0,0,0,8.65,9.07l97.44-.93a9.63,9.63,0,0,0,9.41-9.71A9.34,9.34,0,0,0,1705.75,1428.9Z"/><path class="cls-43" d="M586.65,829.35c-62.74,11-104.53-29.45-135.57-53.87-41-32.24-72.07-15.59-72.07-15.59l44.65,84.42c65.44,61.67,131.07,46.46,172.22,25.3A85.68,85.68,0,0,0,586.65,829.35Z"/><path class="cls-44" d="M674.36,788.71l-20.65,12c-24.73,16.29-47,25.07-67.06,28.59a85.68,85.68,0,0,1,9.23,40.26c26.2-13.47,42.48-29.35,42.48-29.35C685.08,810.11,674.36,788.71,674.36,788.71Z"/><path class="cls-45" d="M439.3,1377.52l-4.64,24.06c-8,41.3,8.14,79.13,36,84.5l33.11,6.39c27.84,5.37,56.87-23.74,64.84-65l4.65-24.06c.3-1.6.58-3.2.81-4.8L680.94,679.18l-72.12-13.91L440.33,1372.76C440,1374.34,439.61,1375.92,439.3,1377.52Zm33.88,4.57c6-31.09,25.84-53.4,44.32-49.83s28.58,31.66,22.58,62.75-25.84,53.4-44.31,49.83S467.18,1413.18,473.18,1382.09Z"/><path class="cls-46" d="M619.52,414.44,592.57,554.07a32.61,32.61,0,0,0,7.59,27.8l34.37,38.89a32.64,32.64,0,0,0,39.11,7.55L720,605a32.64,32.64,0,0,0,17.39-23l27-139.64c4.06-21.06,31.21-27.85,44.32-10.86,31.34,40.63,45.73,95,35,150.52-19.38,100.42-111,154.39-207.6,135.75S474.53,615,493.91,514.55c10.72-55.56,44.3-100.64,88.51-126.69C600.9,377,623.58,393.38,619.52,414.44Z"/><path class="cls-47" d="M632.67,417,605.73,556.61a32.61,32.61,0,0,0,7.59,27.8l34.37,38.89a32.64,32.64,0,0,0,39.11,7.55l46.38-23.31a32.64,32.64,0,0,0,17.39-23l26.95-139.64c4.06-21.06,31.21-27.85,44.32-10.86,31.34,40.63,45.73,95,35,150.52C837.47,685,745.84,739,649.25,720.34S487.69,617.51,507.07,517.09c10.72-55.56,44.3-100.64,88.51-126.69C614.06,379.51,636.74,395.92,632.67,417Z"/><path class="cls-48" d="M449.8,1379.54l-4.64,24.07c-8,41.29,8.14,79.13,36,84.5l33.1,6.39c27.85,5.37,56.88-23.75,64.85-65l4.64-24.07c.31-1.59.58-3.19.82-4.8L691.44,681.21l-72.12-13.92L450.83,1374.78C450.45,1376.36,450.11,1378,449.8,1379.54Zm33.88,4.58c6-31.09,25.84-53.4,44.32-49.84s28.58,31.66,22.58,62.75-25.84,53.41-44.31,49.84S477.68,1415.21,483.68,1384.12Z"/><path class="cls-49" d="M677.05,819.86a15.28,15.28,0,0,0-3.54-12.56c-5.8-6.7-15.82-15.89-23.09-9.7-10.82,9.23,1,40.78,1,40.78l12,18.32.17,11.7C670.12,860.8,674,842.1,677.05,819.86Z"/><path class="cls-50" d="M265.35,971.05c-9,10-22.39,18.72-31.81,24.19,14.56,17.32,34.14,34.56,59.94,51.31l7.61,16.23,22.83-28.44S281.6,1014.26,265.35,971.05Z"/><path class="cls-51" d="M400.43,1499.86a5.71,5.71,0,0,0-.19-1.52c-8.13-29.86-46.05-47.84-46.05-47.84L339.33,1452c-8.06,26.61-6.65,42.81-5.14,50a5.5,5.5,0,0,0,.16.58C346.65,1503.41,371.94,1503.65,400.43,1499.86Z"/><path class="cls-52" d="M334.35,1502.54a6.48,6.48,0,0,0,4.81,4.69c17.54,3.34,45.25-.14,56.88-1.89a5.41,5.41,0,0,0,4.39-5.48C371.94,1503.65,346.65,1503.41,334.35,1502.54Z"/><path class="cls-53" d="M332.92,1429.89l6.88,30.23a5,5,0,0,0,4.32,4,42.1,42.1,0,0,0,9.76-.34,6.25,6.25,0,0,0,4.81-7.43l-4.89-26.86Z"/><path class="cls-54" d="M464.92,1499.77c-16.45-.15-25-1.92-29.42-3.64,0,1.64.06,3.3.14,5a3.26,3.26,0,0,0,3.16,3.24l90.26-2.29c2.88-.07,4.5-3.45,3.2-6.06C520.44,1497.25,490.34,1500,464.92,1499.77Z"/><path class="cls-55" d="M532.26,1496.05a4.11,4.11,0,0,0-.37-.68c-8.18-11-28.9-32.78-69.21-41.64l-19.25-.25s-8.29,15.06-7.93,42.65c4.43,1.72,13,3.49,29.42,3.64C490.34,1500,520.44,1497.25,532.26,1496.05Z"/><path class="cls-56" d="M439.31,1424.38c.24,1.43,3.29,23.19,4.47,31.62a4.2,4.2,0,0,0,3.6,3.72,44.07,44.07,0,0,0,13.22-.46,5.7,5.7,0,0,0,4.21-5.79l-.65-34.23Z"/><path class="cls-57" d="M416.35,1026.75s49.76,175.55,53.11,397.57a8.61,8.61,0,0,1-6.66,8.5c-5.82,1.34-14.37,3-21.47,2.9a8,8,0,0,1-7.73-6.52c-7.23-38-48.64-252.38-70.58-286.89,0,0-10.39,191.79-4,291.07a4.7,4.7,0,0,1-4.06,5,78.72,78.72,0,0,1-17.28.28,6.29,6.29,0,0,1-5.71-5.24c-5.25-32.22-35.57-224-37.05-362.55-.08-7.81,19.87-42.17,19.87-42.17Z"/><path class="cls-58" d="M476.88,812a193.16,193.16,0,0,1-20.22-29.62c-8-14.42-.44,9.44-2.86-7-58.53-40.58-145.08-17.85-178.63-13a44.88,44.88,0,0,0-28.1,15.77c-28.19,33.9-89.71,126.4-13.53,217,9.42-5.47,22.8-14.2,31.81-24.19-8.68-23.06-9.91-52.71,6.66-89.42a87.3,87.3,0,0,0,2.37,8.51c25.21,74.91,27.66,137.6,27.88,152.06a4.77,4.77,0,0,0,3.08,4.4c31.55,12,91.67,3.35,111.84,0a6.81,6.81,0,0,0,5.55-7.83c-11.29-71.74,37.43-191,50.33-220.93A19.86,19.86,0,0,1,476.88,812Z"/><path class="cls-59" d="M328.13,700.86l-4.87,61.77s34.88,9.79,59.77-8.49l-18.79-55.69Z"/><path class="cls-60" d="M367.05,629.84c.85.77,36.51,67.66,36.51,67.66l-38.62,19.55-43.22-58.37S352.83,617,367.05,629.84Z"/><path class="cls-61" d="M339,660a6.24,6.24,0,0,0,.57,5.45l20.06,32a5.72,5.72,0,0,0,1.09,1.31c2.35,2.11,10.39,8.23,16.35-.42,5.08-7.37,9.85-14.07,15.05-16.89a6.21,6.21,0,0,1,8.44,2.6c3.32,6.29,9.77,19.11,13.9,31.31a6.2,6.2,0,0,1-3.46,7.66c-7.83,3.34-23.32,9.42-37.13,11.59a6.22,6.22,0,0,1-5.93-2.39c-6.11-8-23.32-30.53-29.16-36.13-5.42-5.2-15.21-3-19.61-1.66a6.21,6.21,0,0,1-5-.56c-4.54-2.62-12.51-9.2-5.55-20.74a6.22,6.22,0,0,0-2.09-8.42c-5.07-3.2-10.63-9.29-5.64-19.42s14.41-11.33,20.81-10.67a6.46,6.46,0,0,0,6.7-3.9,4.14,4.14,0,0,1,3.16-2.59,6,6,0,0,0,4.75-7.17c-1.23-5.73-.52-13.2,8.55-18.42,16.65-9.56,31.66,5.23,35.65,17.87s-14.65,22-26.45,23.72C345.4,645.43,340.82,655,339,660Z"/><path class="cls-62" d="M346.3,707.89s-7.9-21.74-17.45-20.76-16.92,10.66-4.85,21.16C339,721.35,346.3,707.89,346.3,707.89Z"/><path class="cls-63" d="M268.75,876.05c-13.27-34.29-9.48-76.08-9.44-76.49l3.48.33c0,.41-3.74,41.39,9.22,74.9Z"/><path class="cls-64" d="M361.22,1137.85a1.76,1.76,0,0,1-1.71-1.28c-4.13-14.78-33.27-30.55-33.56-30.71a1.75,1.75,0,1,1,1.65-3.08c1.26.67,30.75,16.64,35.28,32.85a1.74,1.74,0,0,1-1.22,2.15A1.62,1.62,0,0,1,361.22,1137.85Z"/><path class="cls-65" d="M387.13,609.54l-89.28,69.54a2.13,2.13,0,0,1-3.42-1.38l-.93-6.37s-37.15-37.37,1-71.14,83.23,4.48,83.23,4.48l8.63,1.72A1.78,1.78,0,0,1,387.13,609.54Z"/><path class="cls-4" d="M2254.85,1492.12,1948.9,902a6.77,6.77,0,0,1,12-6.23l305.95,590.1a6.77,6.77,0,0,1-12,6.23Z"/><path class="cls-4" d="M2109.51,1496.63,1848,895.77a6.77,6.77,0,0,1,12.41-5.41l261.51,600.86a6.77,6.77,0,0,1-3.5,8.91,6.64,6.64,0,0,1-2.7.57A6.76,6.76,0,0,1,2109.51,1496.63Z"/><path class="cls-4" d="M1903.62,1010.14h106.07a4.23,4.23,0,0,0,0-8.46H1903.62a4.23,4.23,0,1,0,0,8.46Z"/><path class="cls-4" d="M1932,1075.86H2038a4.23,4.23,0,1,0,0-8.46H1932a4.23,4.23,0,0,0,0,8.46Z"/><path class="cls-4" d="M1969.35,1154.54h112.82a4.23,4.23,0,0,0,0-8.46H1969.35a4.23,4.23,0,0,0,0,8.46Z"/><path class="cls-4" d="M1875.43,946.41h101.2a4.23,4.23,0,0,0,0-8.46h-101.2a4.23,4.23,0,0,0,0,8.46Z"/><path class="cls-4" d="M2006.57,1245.07h122.59a4.23,4.23,0,1,0,0-8.46H2006.57a4.23,4.23,0,0,0,0,8.46Z"/><path class="cls-4" d="M2035.38,1315.29h131.49a4.23,4.23,0,0,0,0-8.46H2035.38a4.23,4.23,0,0,0,0,8.46Z"/><path class="cls-66" d="M2147.22,951.11c4.92,5.26,12.18,9.81,17.29,12.64-7.63,9.43-18,18.87-31.61,28.11l-3.91,8.77-12.52-15S2138.94,974.43,2147.22,951.11Z"/><path class="cls-67" d="M2115.5,1088.46a13.47,13.47,0,0,0,19.24,1.36l16.3-14.52a13.46,13.46,0,0,0,.87-19.27L1899.36,788.58,1879,806.74Zm-22.63-44.36c-13.56-15.22-20.61-31.07-15.75-35.39s19.78,4.5,33.34,19.72,20.6,31.06,15.74,35.39S2106.42,1059.31,2092.87,1044.1Z"/><polygon class="cls-68" points="1878.97 806.74 1899.36 788.58 1974.5 868.78 1949.97 890.63 1878.97 806.74"/><path class="cls-69" d="M1787,780.7h195.77a10.46,10.46,0,0,1,10.46,10.46V805a0,0,0,0,1,0,0h-216.7a0,0,0,0,1,0,0V791.16A10.46,10.46,0,0,1,1787,780.7Z" transform="translate(3819.8 131.38) rotate(138.31)"/><path class="cls-70" d="M1795.89,855.83l161.83-144.11c-41.26-44.8-76-90.57-96.56-138.46l-29.32,26.11-4.2,34.23L1803.11,625l-37.78,33.65-5.94,30-17.26-9.34-45.44,40.47C1706.18,764.33,1748.57,810,1795.89,855.83Z"/><path class="cls-71" d="M1803.43,835.06c-54-50.85-85.76-107.19-86.07-107.75l1.78-1c.32.56,31.93,56.64,85.7,107.26Z"/><path class="cls-72" d="M1812.47,827.06c-46.16-40.72-84.18-108.47-84.56-109.15l1.79-1c.38.68,38.23,68.13,84.12,108.61Z"/><path class="cls-73" d="M1860.36,784.52c-52.63-39.24-82.63-110.15-82.92-110.87l1.89-.78c.29.7,30.08,71.11,82.25,110Z"/><path class="cls-74" d="M1872.93,773.33c-50.3-37.15-82.89-109.85-83.22-110.58l1.87-.83c.33.73,32.71,72.94,82.57,109.76Z"/><path class="cls-75" d="M1922,729.42c-51.87-55.32-72.86-113.63-73.07-114.21l1.93-.68c.2.58,21.07,58.5,72.63,113.49Z"/><path class="cls-76" d="M2080.18,1235.86a3.31,3.31,0,0,1,.08-.82c4.06-16.08,24.2-26.1,24.2-26.1l8,.63c4.58,14.17,4,22.87,3.26,26.74,0,.11-.06.21-.08.32A189.42,189.42,0,0,1,2080.18,1235.86Z"/><path class="cls-77" d="M2115.62,1236.63a3.45,3.45,0,0,1-2.54,2.55c-9.36,2-24.24.39-30.49-.43a2.9,2.9,0,0,1-2.41-2.89A189.42,189.42,0,0,0,2115.62,1236.63Z"/><path class="cls-78" d="M2115.65,1197.68l-3.38,16.27a2.68,2.68,0,0,1-2.28,2.19,22.17,22.17,0,0,1-5.23-.09,3.33,3.33,0,0,1-2.65-3.92l2.35-14.45Z"/><path class="cls-79" d="M2045.62,1236.46c8.81-.24,13.37-1.28,15.73-2.24,0,.87,0,1.76,0,2.69a1.74,1.74,0,0,1-1.66,1.77l-48.39-.31a2.22,2.22,0,0,1-1.78-3.22C2015.84,1235.67,2032,1236.85,2045.62,1236.46Z"/><path class="cls-80" d="M2009.49,1235.15a1.9,1.9,0,0,1,.2-.37c4.27-6,15.15-17.86,36.66-23l10.32-.32s4.59,8,4.68,22.78c-2.36,1-6.92,2-15.73,2.24C2032,1236.85,2015.84,1235.67,2009.49,1235.15Z"/><path class="cls-81" d="M2058.58,1195.8c-.11.77-1.53,12.46-2.08,17a2.25,2.25,0,0,1-1.89,2,23.64,23.64,0,0,1-7.09-.11,3,3,0,0,1-2.31-3.06V1193.3Z"/><path class="cls-82" d="M2066.86,982.49s-24.89,94.57-24.44,213.58a4.6,4.6,0,0,0,3.66,4.49,54,54,0,0,0,11.53,1.34,4.28,4.28,0,0,0,4.08-3.57c3.49-20.46,23.51-135.74,34.92-154.45,0,0,7.51,102.67,5.11,155.93a2.53,2.53,0,0,0,2.22,2.63,42.74,42.74,0,0,0,9.27,0,3.38,3.38,0,0,0,3-2.87c2.48-17.31,16.79-120.4,16.18-194.66,0-4.18-11.08-22.39-11.08-22.39Z"/><path class="cls-83" d="M2032.25,868A103.44,103.44,0,0,0,2042.79,852c4.13-7.81,10.08-14.13,11.21-23,28-1,67.81,8.16,85.84,10.43a24.06,24.06,0,0,1,15.22,8.17c15.45,17.88,49.35,66.83,9.45,116.15-5.11-2.83-12.37-7.38-17.29-12.64,4.41-12.44,4.77-28.35-4.48-47.85-.32,1.55-.71,3.08-1.18,4.58-12.75,40.4-13.44,74-13.41,81.77a2.54,2.54,0,0,1-1.6,2.39c-16.78,6.73-49.09,2.72-59.94,1.11a3.65,3.65,0,0,1-3.05-4.14c5.32-38.56-22-102-29.21-117.89A10.57,10.57,0,0,0,2032.25,868Z"/><path class="cls-84" d="M2110.84,802.33l3.23,33s-18.59,5.6-32.11-3.94l9.5-30Z"/><path class="cls-85" d="M2144.43,900.24c6.77-18.51,4.31-40.87,4.29-41.09l-1.87.21c0,.22,2.43,22.15-4.18,40.23Z"/><path class="cls-86" d="M2097.52,1041.47a.94.94,0,0,0,.91-.71c2.07-8,17.52-16.7,17.67-16.79a.94.94,0,0,0-.91-1.64c-.67.37-16.31,9.23-18.57,18a.93.93,0,0,0,.67,1.14A.66.66,0,0,0,2097.52,1041.47Z"/><path class="cls-87" d="M1958.19,869.59c35,5.26,57.83-16.83,74.84-30.23,22.44-17.7,39.91-9.09,39.91-9.09L2049,876c-35.75,33.71-72.41,26.23-95.52,15.3A44.73,44.73,0,0,1,1958.19,869.59Z"/><path class="cls-88" d="M1909.68,840.2,1920.6,855c13.92,8.48,26.38,13,37.59,14.64a44.73,44.73,0,0,0-4.71,21.67,107,107,0,0,1-23.93-15.3C1903.25,860.28,1909.68,840.2,1909.68,840.2Z"/><path class="cls-89" d="M2084.39,773s-14.06,26.47-12.26,37.16,19.23,9.92,34.44,1.24l10.64-28.58Z"/><path class="cls-90" d="M2105.9,797.4a1.08,1.08,0,0,1-.47-1.59,28.75,28.75,0,0,0,3.91-8.31s2.52-1.61-6.44-3.76-22.32-5.47-25.12-13.1c-2.74-7.43,11.94-17.09,23.42-2.19.44.57-6.2-8.47-5.76-9,1.88-2.45,6.83-7.53,13.69-4.45,6.43,2.88,7.16,7.59,7.07,10a1.08,1.08,0,0,0,1.28,1.11c3.25-.61,11.05-1.15,14.69,6.85,3,6.59,1,10.32-.73,12.14a1.09,1.09,0,0,0,.47,1.81c2.13.65,1.42-.39,1.14,4.61-.38,6.92-4.64,9.17-6.84,8.85a1.09,1.09,0,0,0-1,.34c-1.89,2.09-10.39,11-19.6,12a1.09,1.09,0,0,1-1.15-1.45l4-11.58a1.09,1.09,0,0,0-.59-1.36Z"/><path class="cls-91" d="M2104.3,799.05s10-6.87,10.74-1.09-9,8.38-13.84,6.23Z"/><path class="cls-92" d="M2072,762.86l59.39,44.47-1-4s24.19-25.51.34-45.82-51.08,3.72-51.08,3.72Z"/><path class="cls-93" d="M545.32,729.94l3.3-5.18a1,1,0,0,1,1.45-.33,1.05,1.05,0,0,1,.32,1.46h0L547,731.05a1,1,0,0,1-1.72-1.11Z"/><path class="cls-94" d="M556.68,712.83l3.58-5a1.15,1.15,0,1,1,1.87,1.34h0l-3.63,5a1.12,1.12,0,0,1-1.82-1.32Z"/><path class="cls-95" d="M569,696.37l3.85-4.79a1.25,1.25,0,1,1,1.94,1.57h0l-3.9,4.75a1.22,1.22,0,0,1-1.89-1.54Z"/><path class="cls-96" d="M582.13,680.61l4.1-4.58a1.35,1.35,0,0,1,2,1.8h0l-4.14,4.53a1.32,1.32,0,0,1-2-1.76Z"/><path class="cls-97" d="M596.13,665.56l4.33-4.35a1.45,1.45,0,0,1,2,2h0l-4.38,4.31a1.41,1.41,0,0,1-2-2Z"/><path class="cls-98" d="M610.88,651.27l4.56-4.12a1.54,1.54,0,1,1,2.07,2.28h0l-4.59,4.08a1.52,1.52,0,0,1-2-2.25Z"/><path class="cls-99" d="M626.36,637.74l4.75-3.89a1.65,1.65,0,0,1,2.08,2.55h0l-4.79,3.84a1.61,1.61,0,0,1-2-2.51Z"/><path class="cls-100" d="M642.48,625l4.94-3.65a1.74,1.74,0,0,1,2.07,2.8h0l-5,3.6a1.71,1.71,0,0,1-2-2.76Z"/><path class="cls-101" d="M659.2,613.05l5.11-3.41a1.83,1.83,0,1,1,2,3.05h0l-5.14,3.37a1.81,1.81,0,0,1-2-3Z"/><path class="cls-102" d="M676.47,601.9l5.25-3.18a1.94,1.94,0,1,1,2,3.31h0l-5.28,3.13a1.91,1.91,0,0,1-2-3.27Z"/><path class="cls-103" d="M694.22,591.53l5.39-2.94a2,2,0,1,1,1.95,3.57h0l-5.42,2.89a2,2,0,0,1-1.91-3.53Z"/><path class="cls-104" d="M712.42,582l5.51-2.71a2.13,2.13,0,1,1,1.88,3.83h0l-5.54,2.65a2.1,2.1,0,0,1-1.84-3.78Z"/><path class="cls-105" d="M731,573.17l5.62-2.48a2.23,2.23,0,1,1,1.8,4.09h0l-5.64,2.42a2.2,2.2,0,0,1-1.76-4Z"/><path class="cls-106" d="M750,565.15l5.72-2.24a2.33,2.33,0,0,1,1.71,4.34h0l-5.74,2.18a2.3,2.3,0,0,1-1.66-4.29Z"/><path class="cls-107" d="M769.21,557.93l5.81-2a2.4,2.4,0,0,1,1.56,4.54h0l-5.82,2a2.38,2.38,0,0,1-1.54-4.5Z"/><path class="cls-108" d="M788.75,551.49l5.88-1.78a2.45,2.45,0,0,1,1.42,4.7h0l-5.89,1.75a2.44,2.44,0,0,1-1.4-4.67Z"/><path class="cls-109" d="M808.52,545.8l5.94-1.55a2.51,2.51,0,0,1,1.26,4.86h0l-5.94,1.52a2.49,2.49,0,0,1-1.25-4.83Z"/><path class="cls-110" d="M828.48,540.87l6-1.32a2.56,2.56,0,1,1,1.11,5h0l-6,1.29a2.55,2.55,0,0,1-1.09-5Z"/><path class="cls-111" d="M848.62,536.68l6-1.11a2.62,2.62,0,0,1,1,5.16h0l-6,1.08a2.61,2.61,0,0,1-.93-5.13Z"/><path class="cls-112" d="M868.9,533.23l6.08-.89a2.68,2.68,0,0,1,.77,5.3h0l-6.08.85a2.66,2.66,0,0,1-.76-5.26Z"/><path class="cls-113" d="M889.29,530.51l6.11-.67a2.73,2.73,0,0,1,.6,5.43h0l-6.11.64a2.72,2.72,0,0,1-.58-5.4Z"/><path class="cls-114" d="M909.77,528.53l6.13-.46a2.79,2.79,0,0,1,.41,5.56h0l-6.12.42a2.77,2.77,0,0,1-.4-5.52Z"/><path class="cls-115" d="M930.31,527.27l6.14-.23a2.84,2.84,0,1,1,.22,5.67h0l-6.14.2a2.82,2.82,0,0,1-.2-5.64Z"/><path class="cls-116" d="M950.88,526.75l6.15,0a2.9,2.9,0,0,1,0,5.79h0l-6.15,0a2.88,2.88,0,0,1,0-5.75Z"/><path class="cls-117" d="M971.47,527l6.13.2a3,3,0,1,1-.19,5.9h0l-6.14-.24a2.93,2.93,0,0,1,.22-5.86Z"/><path class="cls-118" d="M992,527.91l6.13.43a3,3,0,1,1-.42,6h0l-6.12-.46a3,3,0,0,1,.43-6Z"/><path class="cls-119" d="M1012.55,529.61l6.11.65a3.06,3.06,0,0,1-.65,6.09h0l-6.11-.68a3,3,0,0,1,.67-6Z"/><path class="cls-120" d="M1033,532l6.08.86a3.11,3.11,0,1,1-.86,6.17h0l-6.08-.89A3.1,3.1,0,0,1,1033,532Z"/><path class="cls-121" d="M1053.32,535.12l6,1a3.18,3.18,0,0,1-1.07,6.26h0l-6-1.07a3.16,3.16,0,0,1,1.09-6.22Z"/><path class="cls-122" d="M1073.56,538.82l6,1.22a3.22,3.22,0,1,1-1.28,6.32h0l-6-1.25a3.21,3.21,0,0,1,1.29-6.29Z"/><path class="cls-123" d="M1093.68,543.11l6,1.39a3.28,3.28,0,0,1-1.49,6.39h0l-6-1.42a3.27,3.27,0,0,1,1.5-6.36Z"/><path class="cls-124" d="M1113.65,548l5.94,1.57a3.3,3.3,0,1,1-1.69,6.38h0l-5.94-1.59a3.29,3.29,0,0,1,1.69-6.36Z"/><path class="cls-125" d="M1133.48,553.45l5.9,1.73a3.31,3.31,0,1,1-1.87,6.36h0l-5.89-1.74a3.31,3.31,0,1,1,1.87-6.35Z"/><path class="cls-126" d="M1153.16,559.43l5.84,1.88a3.33,3.33,0,0,1-2,6.35h0l-5.84-1.89a3.33,3.33,0,0,1,2.05-6.34Z"/><path class="cls-127" d="M1172.67,565.92l5.79,2a3.35,3.35,0,1,1-2.22,6.33h0l-5.8-2a3.35,3.35,0,1,1,2.23-6.31Z"/><path class="cls-128" d="M1192,572.89l5.74,2.18a3.37,3.37,0,1,1-2.39,6.31h0l-5.74-2.18a3.37,3.37,0,0,1,2.39-6.3Z"/><path class="cls-129" d="M1211.17,580.33l5.69,2.31a3.39,3.39,0,1,1-2.55,6.28h0l-5.69-2.32a3.38,3.38,0,0,1,2.55-6.27Z"/><path class="cls-130" d="M1230.15,588.21l5.64,2.44a3.41,3.41,0,1,1-2.71,6.26h0l-5.64-2.44a3.41,3.41,0,0,1,2.71-6.25Z"/><path class="cls-131" d="M1249,596.51l5.59,2.56a3.43,3.43,0,0,1-2.86,6.23h0l-5.58-2.57a3.42,3.42,0,0,1,2.85-6.22Z"/><path class="cls-132" d="M1267.57,605.2l5.53,2.68a3.44,3.44,0,1,1-3,6.2h0l-5.52-2.68a3.44,3.44,0,0,1,3-6.2Z"/><path class="cls-133" d="M1286,614.28l5.48,2.78a3.47,3.47,0,1,1-3.14,6.18h0l-5.48-2.79a3.46,3.46,0,0,1,3.14-6.16Z"/><path class="cls-134" d="M1304.25,623.7l5.43,2.89a3.48,3.48,0,1,1-3.27,6.15h0l-5.42-2.9a3.48,3.48,0,0,1,3.27-6.14Z"/><path class="cls-135" d="M1322.33,633.47l5.36,3a3.5,3.5,0,1,1-3.4,6.12h0l-5.35-3a3.5,3.5,0,0,1,3.4-6.11Z"/><path class="cls-136" d="M1340.21,643.55l5.32,3.07a3.52,3.52,0,0,1-3.53,6.09h0l-5.31-3.08a3.51,3.51,0,1,1,3.52-6.08Z"/><path class="cls-137" d="M1357.92,653.93l5.27,3.16a3.53,3.53,0,1,1-3.64,6.06h0l-5.27-3.17a3.53,3.53,0,0,1,3.64-6.05Z"/><path class="cls-138" d="M1375.47,664.59l5.23,3.25a3.56,3.56,0,0,1-3.76,6h0l-5.22-3.25a3.55,3.55,0,0,1,3.75-6Z"/><path class="cls-139" d="M1392.86,675.53l5.17,3.31a3.58,3.58,0,0,1-3.86,6h0l-5.16-3.33a3.57,3.57,0,1,1,3.86-6Z"/><path class="cls-140" d="M1410.08,686.7l5.12,3.4a3.59,3.59,0,1,1-4,6h0l-5.12-3.4a3.59,3.59,0,0,1,4-6Z"/><path class="cls-141" d="M1427.14,698.12l5.07,3.46a3.61,3.61,0,1,1-4.06,6h0l-5.07-3.47a3.6,3.6,0,0,1,4.07-6Z"/><path class="cls-142" d="M1444,709.75l5,3.52a3.63,3.63,0,0,1-4.17,6h0l-5-3.54a3.62,3.62,0,0,1,4.16-5.93Z"/><path class="cls-143" d="M1460.8,721.59l5,3.58a3.65,3.65,0,1,1-4.25,5.93h0l-5-3.59a3.64,3.64,0,0,1,4.25-5.91Z"/><path class="cls-144" d="M1477.42,733.62l4.95,3.64a3.67,3.67,0,1,1-4.34,5.91h0l-5-3.64a3.66,3.66,0,0,1,4.34-5.9Z"/><path class="cls-145" d="M1493.91,745.84l4.91,3.69a3.68,3.68,0,1,1-4.42,5.89h0l-4.9-3.71a3.67,3.67,0,1,1,4.42-5.87Z"/><path class="cls-146" d="M1510.27,758.22l4.88,3.75a3.7,3.7,0,1,1-4.51,5.86h0l-4.87-3.74a3.69,3.69,0,0,1,4.5-5.86Z"/><path class="cls-147" d="M1526.49,770.78l4.84,3.78a3.68,3.68,0,0,1-4.53,5.8l-4.84-3.78a3.68,3.68,0,0,1,4.52-5.81Z"/><path class="cls-148" d="M1542.6,783.46l4.81,3.83a3.66,3.66,0,0,1-4.54,5.73l-4.82-3.82a3.66,3.66,0,1,1,4.55-5.74Z"/><path class="cls-149" d="M1558.62,796.27l4.79,3.85a3.64,3.64,0,0,1-4.56,5.67l-4.79-3.85a3.64,3.64,0,1,1,4.56-5.68Z"/><path class="cls-150" d="M1574.56,809.17l4.77,3.88a3.62,3.62,0,0,1-4.57,5.61l-4.77-3.87a3.63,3.63,0,0,1,4.57-5.63Z"/><path class="cls-151" d="M1590.43,822.16l4.75,3.91a3.59,3.59,0,1,1-4.57,5.55l-4.75-3.9a3.6,3.6,0,0,1,4.57-5.57Z"/><path class="cls-152" d="M1606.23,835.21l4.74,3.93a3.58,3.58,0,0,1-4.57,5.51l-4.74-3.92a3.58,3.58,0,0,1,4.57-5.52Z"/><path class="cls-153" d="M1622,848.32l4.71,3.95a3.55,3.55,0,0,1-4.55,5.46l-4.73-3.93a3.56,3.56,0,1,1,4.56-5.48Z"/><path class="cls-154" d="M1637.7,861.48l4.71,4a3.54,3.54,0,0,1-4.55,5.42l-4.71-4a3.54,3.54,0,1,1,4.54-5.43Z"/><path class="cls-155" d="M1653.38,874.67l4.71,4a3.52,3.52,0,0,1-4.53,5.38l-4.71-4a3.52,3.52,0,1,1,4.53-5.4Z"/><path class="cls-156" d="M1669.05,887.87l4.7,4a3.5,3.5,0,1,1-4.51,5.35l-4.71-4a3.5,3.5,0,0,1,4.51-5.36Z"/><path class="cls-157" d="M1684.7,901.08l4.71,4a3.48,3.48,0,0,1-4.48,5.32l-4.71-4a3.48,3.48,0,1,1,4.48-5.33Z"/><path class="cls-158" d="M1700.37,914.28l4.7,4a3.45,3.45,0,0,1-4.44,5.29l-4.72-3.95a3.46,3.46,0,1,1,4.45-5.31Z"/><path class="cls-159" d="M1716.05,927.45l4.71,4a3.44,3.44,0,1,1-4.41,5.27l-4.72-3.94a3.44,3.44,0,0,1,4.41-5.29Z"/><path class="cls-160" d="M1731.75,940.59l4.72,3.94a3.42,3.42,0,0,1-4.37,5.26l-4.73-3.93a3.42,3.42,0,0,1,4.37-5.27Z"/><path class="cls-161" d="M1747.49,953.68l4.74,3.92a3.4,3.4,0,0,1-4.33,5.24l-4.74-3.91a3.4,3.4,0,1,1,4.33-5.25Z"/><path class="cls-162" d="M1763.28,966.71l4.75,3.9a3.38,3.38,0,0,1-4.27,5.23L1759,972a3.38,3.38,0,1,1,4.28-5.24Z"/><path class="cls-163" d="M1779.13,979.67l4.78,3.87a3.36,3.36,0,0,1-4.23,5.22l-4.78-3.87a3.36,3.36,0,0,1,4.23-5.23Z"/><path class="cls-164" d="M1795.06,992.53l4.79,3.84a3.34,3.34,0,0,1-4.17,5.22l-4.8-3.84a3.34,3.34,0,1,1,4.17-5.22Z"/><path class="cls-165" d="M1811.05,1005.29l4.83,3.8a3.32,3.32,0,0,1-4.11,5.21l-4.83-3.79a3.33,3.33,0,0,1,4.11-5.23Z"/><path class="cls-166" d="M1827.14,1017.92l4.85,3.77a3.3,3.3,0,0,1-4,5.21l-4.86-3.76a3.3,3.3,0,0,1,4-5.22Z"/><path class="cls-167" d="M1843.32,1030.42l4.88,3.73a3.27,3.27,0,0,1-4,5.21l-4.9-3.72a3.28,3.28,0,1,1,4-5.23Z"/><path class="cls-168" d="M1859.59,1042.8l4.91,3.69a3.21,3.21,0,0,1-3.84,5.14l-4.93-3.66a3.23,3.23,0,1,1,3.85-5.18Z"/><path class="cls-169" d="M1876,1055l5,3.64a3.15,3.15,0,0,1-3.72,5.08l-5-3.61A3.17,3.17,0,1,1,1876,1055Z"/><path class="cls-170" d="M1892.48,1067.06l5,3.58a3.09,3.09,0,0,1-3.59,5l-5-3.55a3.11,3.11,0,1,1,3.6-5.07Z"/><path class="cls-171" d="M1909.13,1078.91l5,3.52a3,3,0,0,1-3.46,5l-5-3.5a3,3,0,1,1,3.46-5Z"/><path class="cls-172" d="M1925.92,1090.55,1931,1094a3,3,0,0,1-3.33,4.92l-5.1-3.43a3,3,0,0,1,3.34-5Z"/><path class="cls-173" d="M1942.87,1102l5.13,3.38a2.91,2.91,0,0,1-3.19,4.86l-5.15-3.35a2.92,2.92,0,0,1,3.19-4.9Z"/><path class="cls-174" d="M1960,1113.09l5.21,3.27a2.85,2.85,0,0,1-3,4.83L1957,1118a2.87,2.87,0,1,1,3-4.87Z"/><path class="cls-175" d="M1977.36,1123.79l5.29,3.13a2.79,2.79,0,0,1-2.82,4.81l-5.31-3.1a2.81,2.81,0,0,1,2.83-4.85Z"/><path class="cls-176" d="M1995,1134l5.39,3a2.73,2.73,0,0,1-2.61,4.79l-5.4-2.92A2.75,2.75,0,0,1,1995,1134Z"/><path class="cls-177" d="M2013,1143.53l5.5,2.74a2.67,2.67,0,0,1-2.36,4.79l-5.52-2.71a2.69,2.69,0,0,1,2.37-4.82Z"/><path class="cls-178" d="M2031.37,1152.33l5.62,2.49a2.61,2.61,0,0,1-2.1,4.77l-5.63-2.45a2.62,2.62,0,1,1,2.1-4.81Z"/><path class="cls-179" d="M2050.11,1160.23l5.75,2.19a2.54,2.54,0,0,1-1.8,4.76l-5.76-2.15a2.57,2.57,0,0,1,1.8-4.81Z"/><path class="cls-180" d="M2069.25,1167.07l5.87,1.84a2.49,2.49,0,0,1-1.47,4.75l-5.88-1.81a2.51,2.51,0,0,1,1.47-4.79Z"/><path class="cls-181" d="M2088.77,1172.68l6,1.43a2.43,2.43,0,0,1-1.12,4.73l-6-1.4a2.44,2.44,0,0,1,1.11-4.76Z"/><path class="cls-182" d="M2108.63,1176.9l6.06,1a2.36,2.36,0,0,1-.73,4.67l-6.08-.93a2.39,2.39,0,0,1,.73-4.72Z"/><path class="cls-183" d="M2128.73,1179.57l6.12.49a2.26,2.26,0,0,1-.33,4.51l-6.13-.42a2.3,2.3,0,0,1,.32-4.58Z"/><path class="cls-184" d="M2149,1180.55l6.14-.1a2.16,2.16,0,0,1,.09,4.31l-6.14.16a2.19,2.19,0,0,1-.12-4.37Z"/><path class="cls-185" d="M2169.17,1179.43l6.1-.78a2,2,0,0,1,.54,4.06l-6.09.84a2.08,2.08,0,0,1-.57-4.12Z"/><path class="cls-186" d="M2189.16,1176.11l6-1.41a1.94,1.94,0,0,1,.91,3.77l-6,1.48a2,2,0,1,1-1-3.83Z"/><path class="cls-187" d="M2208.7,1170.72l5.8-2a1.83,1.83,0,0,1,1.23,3.45l-5.77,2.1a1.87,1.87,0,0,1-1.28-3.51Z"/><path class="cls-188" d="M2227.58,1163.31l5.55-2.63a1.73,1.73,0,0,1,1.5,3.11l-5.52,2.69a1.76,1.76,0,0,1-1.54-3.16Z"/><path class="cls-189" d="M2245.57,1153.92l5.22-3.23a1.62,1.62,0,0,1,1.72,2.74l-5.19,3.29a1.65,1.65,0,0,1-1.77-2.79Z"/><path class="cls-190" d="M2262.37,1142.55l4.8-3.82a1.5,1.5,0,0,1,2.12.23,1.52,1.52,0,0,1-.22,2.12l-4.77,3.88a1.54,1.54,0,1,1-2-2.39Z"/><path class="cls-191" d="M2277.64,1129.22l4.27-4.42a1.4,1.4,0,0,1,2,1.94l-4.22,4.46a1.44,1.44,0,0,1-2.09-2Z"/><path class="cls-192" d="M2291,1114l3.59-5a1.29,1.29,0,0,1,1.81-.3,1.31,1.31,0,0,1,.31,1.8l-3.54,5a1.32,1.32,0,0,1-1.85.33,1.34,1.34,0,0,1-.33-1.86Z"/><path class="cls-193" d="M2301.91,1096.9l2.77-5.48a1.18,1.18,0,0,1,1.59-.53,1.19,1.19,0,0,1,.54,1.59l-2.71,5.51a1.22,1.22,0,1,1-2.19-1.07Z"/><path class="cls-194" d="M2310,1078.31l1.81-5.87a1.08,1.08,0,0,1,2.07.62l-1.74,5.89a1.13,1.13,0,0,1-1.39.76,1.12,1.12,0,0,1-.75-1.39Z"/><path class="cls-195" d="M1908,1437.53a2,2,0,1,1,0-4.09c2,0,4.07,0,6.11-.06h0a2.05,2.05,0,0,1,0,4.1C1912.14,1437.52,1910.08,1437.53,1908,1437.53Zm-14.33-.29h-.08q-3.09-.12-6.18-.3a2.05,2.05,0,0,1-1.93-2.16,2.08,2.08,0,0,1,2.17-1.93c2,.12,4.07.22,6.1.3a2,2,0,0,1-.08,4.09Zm34.8-.32a2,2,0,0,1-.12-4.09q3-.18,6.09-.42a2,2,0,1,1,.32,4.08q-3.08.24-6.17.43Zm-55.23-1.08h-.2q-3.07-.3-6.15-.64a2,2,0,0,1,.46-4.07c2,.23,4.05.44,6.08.63a2,2,0,0,1-.19,4.09Zm75.62-.79a2,2,0,0,1-.25-4.08q3-.37,6-.81a2.05,2.05,0,0,1,.58,4.06q-3.06.43-6.13.81A1.06,1.06,0,0,1,1948.88,1435.05Zm-96-1.72-.3,0c-2-.3-4.08-.63-6.11-1a2,2,0,0,1,.68-4q3,.51,6,1a2.05,2.05,0,0,1-.3,4.08Zm116.18-1.46a2,2,0,0,1-.39-4.06c2-.38,4-.79,6-1.21a2,2,0,0,1,.84,4q-3,.63-6.06,1.22A1.69,1.69,0,0,1,1969.11,1431.87Zm-136.34-2.12a1.84,1.84,0,0,1-.41,0q-3-.62-6-1.28a2,2,0,1,1,.88-4q3,.66,6,1.27a2,2,0,0,1-.4,4Zm156.3-2.42a2,2,0,0,1-.52-4q3-.78,5.88-1.62a2,2,0,0,1,1.13,3.94q-3,.84-6,1.64A2.46,2.46,0,0,1,1989.07,1427.33Zm-176.27-2.16a1.79,1.79,0,0,1-.51-.07q-3-.76-6-1.57a2,2,0,1,1,1.07-4q3,.8,5.92,1.55a2.05,2.05,0,0,1-.51,4Zm195.87-3.76a2,2,0,0,1-.67-4c1.93-.66,3.84-1.34,5.75-2a2.05,2.05,0,1,1,1.41,3.85q-2.91,1.07-5.83,2.06A1.91,1.91,0,0,1,2008.67,1421.41Zm-215.58-1.8a2.08,2.08,0,0,1-.6-.09c-2-.61-3.93-1.22-5.89-1.86a2,2,0,1,1,1.26-3.89c1.94.62,3.88,1.24,5.83,1.84a2,2,0,0,1-.6,4Zm234.69-5.52a2,2,0,0,1-.8-3.93q2.79-1.2,5.58-2.45a2,2,0,1,1,1.69,3.73c-1.89.85-3.77,1.68-5.67,2.49A2,2,0,0,1,2027.78,1414.09Zm-254.12-1a1.86,1.86,0,0,1-.69-.12c-1.94-.69-3.87-1.41-5.79-2.13a2,2,0,1,1,1.44-3.83c1.91.71,3.82,1.42,5.74,2.11a2,2,0,0,1-.7,4Zm-19.09-7.38a2,2,0,0,1-.79-.16c-1.9-.79-3.79-1.58-5.68-2.4a2,2,0,1,1,1.61-3.76q2.82,1.21,5.64,2.38a2,2,0,0,1-.78,3.94Zm291.72-.37a2,2,0,0,1-.94-3.86c1.8-.94,3.59-1.89,5.38-2.87a2,2,0,1,1,2,3.59q-2.71,1.49-5.46,2.91A2,2,0,0,1,2046.29,1405.37Zm-310.46-7.89a2.07,2.07,0,0,1-.87-.19q-2.79-1.3-5.57-2.66a2,2,0,1,1,1.79-3.68q2.74,1.33,5.52,2.63a2,2,0,0,1-.87,3.9Zm-18.34-9.11a2,2,0,0,1-1-.23c-1.82-1-3.64-1.93-5.44-2.91a2,2,0,1,1,2-3.59q2.68,1.45,5.39,2.87a2.05,2.05,0,0,1,.86,2.77A2,2,0,0,1,1717.49,1388.37Zm-17.9-9.93a2,2,0,0,1-1-.28q-2.67-1.56-5.31-3.15a2,2,0,1,1,2.12-3.5l5.25,3.12a2,2,0,0,1-1,3.81Zm-17.42-10.74a2.05,2.05,0,0,1-1.11-.33c-1.73-1.11-3.45-2.24-5.16-3.37a2,2,0,0,1,2.26-3.42q2.55,1.7,5.12,3.35a2,2,0,0,1-1.11,3.77Zm-17-11.43a2.05,2.05,0,0,1-1.17-.37q-2.52-1.77-5-3.57a2,2,0,0,1,2.39-3.33q2.47,1.79,5,3.54a2.05,2.05,0,0,1-1.18,3.73Zm-16.53-12.06a2,2,0,0,1-1.23-.41q-2.46-1.86-4.89-3.75a2,2,0,1,1,2.5-3.24c1.62,1.25,3.23,2.49,4.86,3.72a2,2,0,0,1-1.24,3.68Zm-16.1-12.64a2.09,2.09,0,0,1-1.29-.45q-2.38-1.95-4.76-3.91a2.05,2.05,0,1,1,2.62-3.16c1.57,1.31,3.14,2.6,4.73,3.89a2,2,0,0,1,.29,2.88A2,2,0,0,1,1632.57,1331.57Zm-15.67-13.17a2.08,2.08,0,0,1-1.34-.5c-1.55-1.35-3.1-2.7-4.63-4.07a2,2,0,1,1,2.71-3.06c1.53,1.35,3.07,2.7,4.61,4a2.05,2.05,0,0,1,.2,2.89A2,2,0,0,1,1616.9,1318.4Zm-15.25-13.67a2.06,2.06,0,0,1-1.39-.54l-4.51-4.2a2.05,2.05,0,0,1,2.81-3l4.48,4.18a2,2,0,0,1-1.39,3.55Zm-14.84-14.11a2,2,0,0,1-1.43-.58l-4.39-4.33a2.05,2.05,0,0,1,2.89-2.91q2.17,2.16,4.36,4.31a2,2,0,0,1-1.43,3.51Zm-14.45-14.53a2,2,0,0,1-1.47-.62q-2.15-2.21-4.27-4.44a2,2,0,1,1,3-2.83c1.41,1.48,2.83,3,4.25,4.42a2,2,0,0,1-1.47,3.47Zm-14.07-14.89a2,2,0,0,1-1.5-.66c-1.4-1.51-2.78-3-4.16-4.54a2,2,0,0,1,.13-2.89,2.06,2.06,0,0,1,2.9.13c1.37,1.52,2.75,3,4.14,4.53a2,2,0,0,1-1.51,3.43ZM1544.58,1246a2,2,0,0,1-1.54-.69q-2-2.31-4.06-4.64a2,2,0,0,1,3.09-2.69c1.35,1.55,2.69,3.09,4,4.62a2,2,0,0,1-1.53,3.4Zm-13.38-15.51a2.07,2.07,0,0,1-1.57-.73l-4-4.72a2,2,0,0,1,3.15-2.62l3.94,4.7a2,2,0,0,1-.24,2.88A2,2,0,0,1,1531.2,1230.47Zm-13.07-15.78a2.06,2.06,0,0,1-1.59-.76l-3.87-4.79a2,2,0,0,1,3.19-2.57l3.86,4.78a2,2,0,0,1-.3,2.88A2,2,0,0,1,1518.13,1214.69Zm-12.78-16a2,2,0,0,1-1.61-.79q-1.9-2.42-3.79-4.85a2.06,2.06,0,0,1,.36-2.88,2,2,0,0,1,2.87.37l3.78,4.83a2.06,2.06,0,0,1-1.61,3.32Zm-12.52-16.22a2,2,0,0,1-1.63-.81q-1.86-2.45-3.71-4.91a2,2,0,0,1,3.27-2.46c1.23,1.63,2.46,3.27,3.7,4.9a2,2,0,0,1-.39,2.86A2,2,0,0,1,1492.83,1182.46Zm-12.28-16.39a2.06,2.06,0,0,1-1.65-.83q-1.83-2.48-3.64-5a2,2,0,0,1,3.3-2.42l3.64,5a2,2,0,0,1-1.65,3.26Zm-12.07-16.55a2,2,0,0,1-1.66-.85l-3.59-5a2,2,0,1,1,3.33-2.38l3.58,5a2,2,0,0,1-1.66,3.24Zm-11.89-16.67a2,2,0,0,1-1.67-.87l-3.54-5a2.05,2.05,0,0,1,3.36-2.35l3.53,5a2,2,0,0,1-1.68,3.23Zm-11.73-16.78a2,2,0,0,1-1.68-.88l-3.5-5a2.05,2.05,0,0,1,3.38-2.33l3.49,5a2.05,2.05,0,0,1-.52,2.85A2,2,0,0,1,1444.86,1116.07Zm-11.6-16.86a2,2,0,0,1-1.69-.89l-3.46-5.07a2.05,2.05,0,0,1,3.39-2.31L1435,1096a2,2,0,0,1-1.69,3.2Zm-11.5-16.93a2.05,2.05,0,0,1-1.7-.9l-3.44-5.09a2,2,0,0,1,3.4-2.29l3.44,5.09a2,2,0,0,1-.55,2.84A2,2,0,0,1,1421.76,1082.28Zm-11.45-17a2,2,0,0,1-1.7-.91l-3.43-5.1a2,2,0,1,1,3.4-2.28l3.43,5.09a2.06,2.06,0,0,1-.56,2.85A2.09,2.09,0,0,1,1410.31,1065.3Zm-11.42-17a2.06,2.06,0,0,1-1.71-.9l-3.42-5.1a2,2,0,1,1,3.4-2.29l3.43,5.1a2,2,0,0,1-1.7,3.19Zm-11.43-17a2,2,0,0,1-1.7-.91l-3.44-5.09a2,2,0,1,1,3.4-2.29l3.44,5.1a2,2,0,0,1-.56,2.84A2,2,0,0,1,1387.46,1031.3Zm-11.47-17a2,2,0,0,1-1.69-.89l-3.45-5.09a2,2,0,0,1,3.39-2.3l3.45,5.09a2,2,0,0,1-.55,2.84A2,2,0,0,1,1376,1014.32Zm-11.52-16.92a2.05,2.05,0,0,1-1.7-.89l-3.47-5.07a2,2,0,0,1,3.38-2.32l3.47,5.07a2.05,2.05,0,0,1-1.68,3.21Zm-11.63-16.86a2.06,2.06,0,0,1-1.68-.88l-3.51-5a2,2,0,0,1,3.36-2.34l3.51,5a2.05,2.05,0,0,1-1.68,3.22Zm-11.74-16.77a2,2,0,0,1-1.68-.87l-3.55-5a2.05,2.05,0,1,1,3.34-2.38l3.56,5a2,2,0,0,1-.49,2.85A2,2,0,0,1,1341.1,963.77Zm-11.91-16.66a2.05,2.05,0,0,1-1.66-.84l-3.6-5a2,2,0,0,1,3.31-2.41l3.61,5a2,2,0,0,1-1.66,3.24Zm-12.08-16.52a2.05,2.05,0,0,1-1.65-.83l-3.66-4.92a2,2,0,0,1,3.28-2.45l3.67,4.93a2,2,0,0,1-.42,2.86A2,2,0,0,1,1317.11,930.59Zm-12.3-16.37a2,2,0,0,1-1.63-.8c-1.24-1.63-2.49-3.25-3.73-4.87a2,2,0,1,1,3.24-2.5l3.74,4.89a2,2,0,0,1-.38,2.86A2,2,0,0,1,1304.81,914.22Zm-12.55-16.17a2.07,2.07,0,0,1-1.61-.78q-1.89-2.41-3.8-4.81a2,2,0,0,1,3.2-2.55q1.92,2.4,3.82,4.82a2.05,2.05,0,0,1-.34,2.88A2.08,2.08,0,0,1,1292.26,898.05Zm-12.81-16a2,2,0,0,1-1.59-.75q-1.93-2.37-3.89-4.73a2,2,0,1,1,3.16-2.61c1.3,1.58,2.61,3.16,3.9,4.75a2,2,0,0,1-1.58,3.34Zm-13.11-15.72a2.05,2.05,0,0,1-1.56-.72c-1.33-1.56-2.65-3.11-4-4.66a2,2,0,0,1,3.11-2.67c1.33,1.55,2.67,3.11,4,4.68a2,2,0,0,1-.24,2.88A2,2,0,0,1,1266.34,866.36Zm-13.43-15.45a2,2,0,0,1-1.54-.69c-1.35-1.52-2.71-3.05-4.08-4.56a2,2,0,0,1,3-2.75l4.11,4.59a2.05,2.05,0,0,1-1.53,3.41Zm-13.78-15.14a2,2,0,0,1-1.5-.65q-2.09-2.25-4.2-4.47a2.05,2.05,0,0,1,3-2.82c1.41,1.5,2.82,3,4.21,4.5a2,2,0,0,1-.1,2.89A2,2,0,0,1,1239.13,835.77ZM1225,821a2,2,0,0,1-1.46-.62q-2.14-2.19-4.31-4.36a2,2,0,0,1,2.9-2.89c1.45,1.46,2.9,2.92,4.33,4.38A2.06,2.06,0,0,1,1225,821Zm-14.53-14.43A2,2,0,0,1,1209,806l-4.42-4.24a2,2,0,1,1,2.82-3l4.45,4.26a2.06,2.06,0,0,1,.05,2.9A2,2,0,0,1,1210.45,806.54Zm-14.94-14a2,2,0,0,1-1.38-.54c-1.51-1.37-3-2.74-4.55-4.11a2,2,0,1,1,2.73-3q2.3,2.05,4.58,4.14a2,2,0,0,1-1.38,3.56ZM1180.15,779a2,2,0,0,1-1.32-.49q-2.34-2-4.69-4a2,2,0,0,1,2.62-3.15c1.58,1.32,3.16,2.65,4.72,4a2,2,0,0,1,.23,2.89A2,2,0,0,1,1180.15,779Zm-15.83-13a2,2,0,0,1-1.27-.45c-1.6-1.26-3.21-2.53-4.83-3.78a2,2,0,0,1,2.51-3.24l4.86,3.81a2.05,2.05,0,0,1-1.27,3.66ZM1148,753.51a2,2,0,0,1-1.21-.4q-2.47-1.82-5-3.6a2,2,0,1,1,2.39-3.32c1.67,1.2,3.33,2.4,5,3.62a2,2,0,0,1-1.21,3.7Zm-16.74-11.83a2.06,2.06,0,0,1-1.15-.35c-1.68-1.15-3.38-2.29-5.08-3.41a2.05,2.05,0,0,1,2.27-3.42l5.12,3.44a2,2,0,0,1-1.16,3.74Zm-17.15-11.19a2,2,0,0,1-1.08-.31q-2.6-1.62-5.21-3.21a2,2,0,0,1,2.13-3.5q2.64,1.6,5.25,3.24a2,2,0,0,1-1.09,3.78ZM1096.57,720a2.07,2.07,0,0,1-1-.27c-1.77-1-3.54-2-5.33-3a2.05,2.05,0,0,1,2-3.58q2.68,1.5,5.36,3a2.05,2.05,0,0,1-1,3.83Zm-18-9.82a2,2,0,0,1-.94-.23q-2.72-1.41-5.44-2.79a2.05,2.05,0,1,1,1.85-3.66q2.75,1.39,5.48,2.82a2,2,0,0,1-1,3.86Zm-18.34-9.07a1.91,1.91,0,0,1-.87-.2q-2.78-1.29-5.55-2.55a2.05,2.05,0,0,1,1.69-3.74q2.81,1.27,5.6,2.59a2,2,0,0,1-.87,3.9Zm-18.71-8.29a2.17,2.17,0,0,1-.79-.15q-2.82-1.18-5.66-2.32a2,2,0,0,1,1.53-3.8c1.91.77,3.81,1.54,5.7,2.34a2,2,0,0,1-.78,3.93Zm-19.06-7.44a1.94,1.94,0,0,1-.71-.13c-1.91-.69-3.83-1.38-5.75-2.05a2,2,0,1,1,1.35-3.86q2.91,1,5.81,2.07a2,2,0,0,1-.7,4Zm-19.39-6.55a2.08,2.08,0,0,1-.6-.09q-2.93-.91-5.85-1.78a2,2,0,1,1,1.16-3.92q3,.87,5.9,1.79a2,2,0,0,1-.61,4Zm-19.67-5.59a1.86,1.86,0,0,1-.52-.07q-3-.76-5.92-1.48a2,2,0,0,1,1-4q3,.72,6,1.5a2,2,0,0,1-.51,4Zm-19.94-4.59a2.85,2.85,0,0,1-.41,0c-2-.41-4-.8-6-1.17a2,2,0,1,1,.74-4q3,.55,6.06,1.17a2.05,2.05,0,0,1-.4,4.06Zm-128.18-1.88a2,2,0,0,1-.37-4.06q3-.57,6.09-1.07a2,2,0,0,1,2.36,1.68,2.06,2.06,0,0,1-1.69,2.36q-3,.5-6,1.06A2.43,2.43,0,0,1,835.32,666.74Zm108-1.63-.3,0c-2-.3-4-.57-6-.83a2.05,2.05,0,0,1,.52-4.07q3.06.4,6.11.84a2.05,2.05,0,0,1-.29,4.08Zm-87.78-1.45a2.05,2.05,0,0,1-.24-4.09q3.07-.36,6.15-.67a2,2,0,1,1,.4,4.08q-3,.3-6.06.66Zm67.45-.93h-.18q-3-.27-6.08-.48a2,2,0,0,1,.28-4.09q3.09.23,6.16.49a2,2,0,0,1-.18,4.08Zm-47-.83a2,2,0,0,1-.11-4.09q3.09-.16,6.18-.27a2,2,0,0,1,2.12,2,2.05,2.05,0,0,1-2,2.12q-3,.11-6.1.27Zm26.62-.34h-.06c-2-.06-4.07-.1-6.1-.12a2,2,0,0,1-2-2.06,2,2,0,0,1,2.06-2q3.09,0,6.18.11a2.05,2.05,0,0,1,0,4.1Z"/></g></svg>