<svg id="Layer_1" data-name="Layer 1" xmlns="http://www.w3.org/2000/svg" viewBox="0 0 112.5 112.5">
  <defs>
    <style>.cls-1 {
      fill: #e6e6e6;
      stroke: #fbb03b;
      stroke-miterlimit: 10;
    }

    .cls-2 {
      fill: #ef9e0f;
    }

    .cls-3 {
      fill: #a57b05;
    }

    .cls-4 {
      fill: #774829;
    }

    .cls-5 {
      fill: #0f0f0f;
    }

    .cls-6 {
      font-size: 8.23px;
      fill: #f9d375;
      font-family: Poppins-SemiBold, Poppins;
      font-weight: 600;
    }</style>
  </defs>
  <title>logo</title>
  <circle class="cls-1" cx="56.25" cy="56.25" r="55.75"/>
  <path class="cls-2"
        d="M91.86,52.14h2.27a4.58,4.58,0,0,0,4-4.51V24.25a4.58,4.58,0,0,0-4.57-4.56h-1a4.58,4.58,0,0,0-4.57,4.56V47.63A4.57,4.57,0,0,0,91.86,52.14ZM89.66,24.6a.3.3,0,0,1,.6,0v23a.3.3,0,1,1-.6,0Z"
        transform="translate(-5.5 -2)"/>
  <path class="cls-3"
        d="M28.53,52.14H30.8a4.58,4.58,0,0,0,4-4.51V28.84a4.58,4.58,0,0,0-4.57-4.57H29.14a4.58,4.58,0,0,0-4.57,4.57V47.63A4.57,4.57,0,0,0,28.53,52.14ZM26.27,28.32a.3.3,0,0,1,.6,0V47.43a.3.3,0,0,1-.6,0Z"
        transform="translate(-5.5 -2)"/>
  <path class="cls-3"
        d="M63.24,51l.22,1.19H80.9l.1-1.35a2.31,2.31,0,0,0,1.25-2V38.91a2.3,2.3,0,0,0-2.3-2.3H63.87a2.3,2.3,0,0,0-2.29,2.3v9.84A2.3,2.3,0,0,0,63.24,51Zm2-9a2.31,2.31,0,0,1,2.3-2.3H76.7a2.31,2.31,0,0,1,2.3,2.3h0a2.31,2.31,0,0,1-2.3,2.3H67.51a2.31,2.31,0,0,1-2.3-2.3Z"
        transform="translate(-5.5 -2)"/>
  <path class="cls-2"
        d="M45,52.11v0h4.55v0s4.18-2.24,4.43-5.93S51.42,39,51.42,39H49.93l0,6.27-1.59,1.85H46.13l-1.59-1.85L44.59,39H43.1s-2.79,3.49-2.54,7.18S45,52.11,45,52.11Z"
        transform="translate(-5.5 -2)"/>
  <polygon class="cls-3"
           points="62.07 65.93 62.09 65.95 60.96 67.12 61.01 67.39 62.52 68.07 61.4 69.61 61.45 69.88 62.86 70.32 61.76 71.63 61.84 72.1 63.14 72.73 62.21 74.15 62.24 74.33 63.57 75.03 62.59 76.32 62.62 76.47 64.15 77.13 62.99 78.56 63 78.66 64.63 79.75 63.42 81 63.44 81.14 65.06 81.87 63.86 83.5 63.89 83.65 65.39 84.12 64.22 85.51 64.25 85.68 65.52 86.3 64.6 87.69 64.64 87.91 65.95 88.59 64.99 89.86 65.02 90.05 66.53 90.7 65.38 92.1 65.41 92.24 67.01 93.31 65.82 94.55 65.85 94.71 67.44 95.44 66.26 97.05 66.29 97.22 67.77 97.68 66.67 99 71.82 99 74.24 65.93 62.07 65.93"/>
  <path class="cls-2"
        d="M94.11,92.1h-.24V67.93H92.11V92.1h-.23a.12.12,0,0,0-.11.16L93,95.78a.11.11,0,0,0,.21,0l1-3.52A.12.12,0,0,0,94.11,92.1Z"
        transform="translate(-5.5 -2)"/>
  <path class="cls-2"
        d="M49.53,77.75V67.93H45v9.82S40.81,80,40.56,83.68s2.54,7.18,2.54,7.18h1.49l-.05-6.27,1.59-1.85h2.26L50,84.59l0,6.27h1.49S54.2,87.37,54,83.68,49.53,77.75,49.53,77.75Z"
        transform="translate(-5.5 -2)"/>
  <path class="cls-3"
        d="M30.54,90.91v-23H28.78v23a1.81,1.81,0,0,0-.92,1.56v2a1.8,1.8,0,1,0,3.6,0v-2A1.79,1.79,0,0,0,30.54,90.91Z"
        transform="translate(-5.5 -2)"/>
  <polygon class="cls-4" points="68.91 58.51 70.49 58.51 69.7 56.2 68.91 58.51"/>
  <polygon class="cls-4" points="36.17 58.51 37.75 58.51 36.96 56.2 36.17 58.51"/>
  <path class="cls-4"
        d="M54.89,57.73h-.76v3.83h.76a1.79,1.79,0,0,0,1.36-.51,2.25,2.25,0,0,0,0-2.8A1.76,1.76,0,0,0,54.89,57.73Z"
        transform="translate(-5.5 -2)"/>
  <path class="cls-4"
        d="M69.92,57.94a.86.86,0,0,0-.64-.22h-.93v1.62h.93a.9.9,0,0,0,.64-.21.81.81,0,0,0,.22-.6A.78.78,0,0,0,69.92,57.94Z"
        transform="translate(-5.5 -2)"/>
  <path class="cls-5"
        d="M18,53.39V67.08h1.24a.62.62,0,0,1,.58-.39H104V53.39Zm5.51,8.22A1.82,1.82,0,0,1,21.3,59.4a1.78,1.78,0,0,1,1.31-1.31,1.82,1.82,0,0,1,2.21,2.21A1.78,1.78,0,0,1,23.51,61.61Zm75.94.27a1.82,1.82,0,0,1-2.21-2.22,1.8,1.8,0,0,1,1.31-1.31,1.82,1.82,0,0,1,.9,3.53Z"
        transform="translate(-5.5 -2)"/>
  <text class="cls-6" transform="translate(27.04 61.31)">HANDY WORK</text>
</svg>
